<svg xmlns="http://www.w3.org/2000/svg" xmlns:xlink="http://www.w3.org/1999/xlink" width="53.086mm" height="80.086mm" viewBox="4010 3310.5 209 315.3"><title></title><style type="text/css">
*[layerid="1"] {stroke:#000000;fill:#000000;}
*[layerid="2"] {stroke:#000000;fill:#000000;}
*[layerid="3"] {stroke:#000000;fill:#000000;}
*[layerid="4"] {stroke:#000000;fill:#000000;}
*[layerid="5"] {stroke:#000000;fill:#000000;}
*[layerid="6"] {stroke:#000000;fill:#000000;}
*[layerid="7"] {stroke:#000000;fill:#000000;}
*[layerid="8"] {stroke:#000000;fill:#000000;}
*[layerid="9"] {stroke:#000000;fill:#000000;}
*[layerid="10"] {stroke:#000000;fill:#000000;}
*[layerid="11"] {stroke:#000000;fill:#000000;}
*[layerid="12"] {stroke:#000000;fill:#000000;}
*[layerid="13"] {stroke:#000000;fill:#000000;}
*[layerid="14"] {stroke:#000000;fill:#000000;}
*[layerid="15"] {stroke:#000000;fill:#000000;}
*[layerid="19"] {stroke:#000000;fill:#000000;}
*[layerid="21"] {stroke:#000000;fill:#000000;}
*[layerid="22"] {stroke:#000000;fill:#000000;}
*[layerid="23"] {stroke:#000000;fill:#000000;}
*[layerid="24"] {stroke:#000000;fill:#000000;}
*[layerid="25"] {stroke:#000000;fill:#000000;}
*[layerid="26"] {stroke:#000000;fill:#000000;}
*[layerid="27"] {stroke:#000000;fill:#000000;}
*[layerid="28"] {stroke:#000000;fill:#000000;}
*[layerid="29"] {stroke:#000000;fill:#000000;}
*[layerid="30"] {stroke:#000000;fill:#000000;}
*[layerid="31"] {stroke:#000000;fill:#000000;}
*[layerid="32"] {stroke:#000000;fill:#000000;}
*[layerid="33"] {stroke:#000000;fill:#000000;}
*[layerid="34"] {stroke:#000000;fill:#000000;}
*[layerid="35"] {stroke:#000000;fill:#000000;}
*[layerid="36"] {stroke:#000000;fill:#000000;}
*[layerid="37"] {stroke:#000000;fill:#000000;}
*[layerid="38"] {stroke:#000000;fill:#000000;}
*[layerid="39"] {stroke:#000000;fill:#000000;}
*[layerid="40"] {stroke:#000000;fill:#000000;}
*[layerid="41"] {stroke:#000000;fill:#000000;}
*[layerid="42"] {stroke:#000000;fill:#000000;}
*[layerid="43"] {stroke:#000000;fill:#000000;}
*[layerid="44"] {stroke:#000000;fill:#000000;}
*[layerid="45"] {stroke:#000000;fill:#000000;}
*[layerid="46"] {stroke:#000000;fill:#000000;}
*[layerid="47"] {stroke:#000000;fill:#000000;}
*[layerid="48"] {stroke:#000000;fill:#000000;}
*[layerid="49"] {stroke:#000000;fill:#000000;}
*[layerid="50"] {stroke:#000000;fill:#000000;}
*[layerid="51"] {stroke:#000000;fill:#000000;}
*[layerid="52"] {stroke:#000000;fill:#000000;}
*[layerid="99"] {stroke:#000000;fill:#000000;}
*[layerid="100"] {stroke:#000000;fill:#000000;}
*[layerid="101"] {stroke:#000000;fill:#000000;}
*[layerid="Hole"] {stroke:#000000;fill:#000000;}
*[layerid="DRCError"] {stroke:#000000;fill:#000000;}
*[fill="none"] {fill: none;}
*[stroke="none"] {stroke: none;}
path, polyline, polygon, line {stroke-linecap:round;}
g[c_partid="part_pad"][layerid="1"] ellipse:not([c_etype="pad_outer"]) {fill:#000000;}
g[c_partid="part_pad"][layerid="1"] polygon:not([c_etype="pad_outer"]) {fill:#000000;}
g[c_partid="part_pad"][layerid="1"] polyline:not([c_etype="pad_outer"]) {stroke:#000000;}
g[c_partid="part_pad"][layerid="2"] ellipse:not([c_etype="pad_outer"]) {fill:#000000;}
g[c_partid="part_pad"][layerid="2"] polygon:not([c_etype="pad_outer"]) {fill:#000000;}
g[c_partid="part_pad"][layerid="2"] polyline:not([c_etype="pad_outer"]) {stroke:#000000;}
g[c_partid="part_pad"][layerid="11"] ellipse:not([c_etype="pad_outer"]) {fill:#000000;}
g[c_partid="part_pad"][layerid="11"] polygon:not([c_etype="pad_outer"]) {fill:#000000;}
g[c_partid="part_pad"][layerid="11"] polyline:not([c_etype="pad_outer"]) {stroke:#000000;}
g[c_partid="part_pad"][layerid="11"] circle {fill:#FFFFFF;}
g[c_partid="part_pad"][layerid="11"] > polyline:nth-of-type(2) {stroke:#FFFFFF;}
g[c_partid="part_pad"][layerid="11"][c_shape="ELLIPSE"]  polyline:nth-last-of-type(1) {stroke:#FFFFFF;}
g[c_partid="part_pad"][layerid="11"][c_shape="RECT"]  polyline:nth-last-of-type(1) {stroke:#FFFFFF;}
g[c_partid="part_pad"][layerid="11"][c_shape="POLYGON"]  polyline:nth-last-of-type(1) {stroke:#FFFFFF;}
g[c_partid="part_via"] > * + circle, #gCurParts g[c_partid="part_via"] > * + circle {fill:#FFFFFF;}
g[c_partid="part_pad"] > polygon[c_etype="pad_outer"], #gCurParts g[c_partid="part_pad"] > polygon[c_etype="pad_outer"] {stroke-linejoin: round;stroke-miterlimit: 100;}
g[c_partid="part_hole"] > circle {fill: #FFFFFF;}path, polyline, polygon {stroke-linejoin:round;}
rect, circle, ellipse, polyline, line, polygon, path {shape-rendering:crispEdges;}
</style>
<rect x="4010" y="3310.5" width="209" height="315.3" fill="#FFFFFF" stroke="none"/><g c_partid="part_pad" c_etype="pinpart" c_origin="4100,3463" layerid="11" number="1" net="U1_1" plated ="Y"  id="gge3510" locked="0" c_rotation="0" c_width="6" c_height="6" title="U1_1" c_shape="ELLIPSE" pasteexpansion="0" solderexpansion="0.2"><ellipse c_etype="pad_shell" cx="4100" cy="3463" rx="3" ry="3" layerid="11" stroke-width="0"/><circle c_etype="pad_hole" cx="4100" cy="3463" r="1.8" layerid="11" stroke-width="0"/></g><g c_partid="part_pad" c_etype="pinpart" c_origin="4142,3508" layerid="11" number="2" net="U1_1" plated ="Y"  id="gge3585" locked="0" c_rotation="0" c_width="6" c_height="6" title="U1_1" c_shape="ELLIPSE" pasteexpansion="0" solderexpansion="0.2"><ellipse c_etype="pad_shell" cx="4142" cy="3508" rx="3" ry="3" layerid="11" stroke-width="0"/><circle c_etype="pad_hole" cx="4142" cy="3508" r="1.8" layerid="11" stroke-width="0"/></g><g c_partid="part_pad" c_etype="pinpart" c_origin="4042,3590.11" layerid="11" number="2" net="C1_2" plated ="Y"  id="gge39" locked="0" c_rotation="180" c_width="6.2992" c_height="6.2992" title="C1_2" c_shape="ELLIPSE" pasteexpansion="0" solderexpansion="0.4"><ellipse c_etype="pad_shell" cx="4042" cy="3590.11" rx="3.1496" ry="3.1496" layerid="11" stroke-width="0"/><circle c_etype="pad_hole" cx="4042" cy="3590.11" r="1.9685" layerid="11" stroke-width="0"/></g><g c_partid="part_pad" c_etype="pinpart" c_origin="4042,3603.89" layerid="11" number="1" net="OUT2" plated ="Y"  id="gge54" locked="0" c_rotation="180" c_width="6.2992" c_height="6.2992" title="OUT2" c_shape="ELLIPSE" pasteexpansion="0" solderexpansion="0.4"><ellipse c_etype="pad_shell" cx="4042" cy="3603.89" rx="3.1496" ry="3.1496" layerid="11" stroke-width="0"/><circle c_etype="pad_hole" cx="4042" cy="3603.89" r="1.9685" layerid="11" stroke-width="0"/></g><g c_partid="part_pad" c_etype="pinpart" c_origin="4034.11,3415" layerid="11" number="2" net="R3_1" plated ="Y"  id="gge105" locked="0" c_rotation="270" c_width="6.2992" c_height="6.2992" title="R3_1" c_shape="ELLIPSE" pasteexpansion="0" solderexpansion="0.4"><ellipse c_etype="pad_shell" cx="4034.11" cy="3415" rx="3.1496" ry="3.1496" layerid="11" stroke-width="0"/><circle c_etype="pad_hole" cx="4034.11" cy="3415" r="1.9685" layerid="11" stroke-width="0"/></g><g c_partid="part_pad" c_etype="pinpart" c_origin="4047.89,3415" layerid="11" number="1" net="OUT1" plated ="Y"  id="gge120" locked="0" c_rotation="270" c_width="6.2992" c_height="6.2992" title="OUT1" c_shape="ELLIPSE" pasteexpansion="0" solderexpansion="0.4"><ellipse c_etype="pad_shell" cx="4047.89" cy="3415" rx="3.1496" ry="3.1496" layerid="11" stroke-width="0"/><circle c_etype="pad_hole" cx="4047.89" cy="3415" r="1.9685" layerid="11" stroke-width="0"/></g><g c_partid="part_pad" c_etype="pinpart" c_origin="4041.61,3375.5" layerid="11" number="2" net="R12_1" plated ="Y"  id="gge171" locked="0" c_rotation="270" c_width="6.2992" c_height="6.2992" title="R12_1" c_shape="ELLIPSE" pasteexpansion="0" solderexpansion="0.4"><ellipse c_etype="pad_shell" cx="4041.61" cy="3375.5" rx="3.1496" ry="3.1496" layerid="11" stroke-width="0"/><circle c_etype="pad_hole" cx="4041.61" cy="3375.5" r="1.9685" layerid="11" stroke-width="0"/></g><g c_partid="part_pad" c_etype="pinpart" c_origin="4055.39,3375.5" layerid="11" number="1" net="+3.3V" plated ="Y"  id="gge186" locked="0" c_rotation="270" c_width="6.2992" c_height="6.2992" title="+3.3V" c_shape="ELLIPSE" pasteexpansion="0" solderexpansion="0.4"><ellipse c_etype="pad_shell" cx="4055.39" cy="3375.5" rx="3.1496" ry="3.1496" layerid="11" stroke-width="0"/><circle c_etype="pad_hole" cx="4055.39" cy="3375.5" r="1.9685" layerid="11" stroke-width="0"/></g><g c_partid="part_pad" c_etype="pinpart" c_origin="4151,3608.5" layerid="11" number="5" net="OUT1" plated ="Y"  id="gge252" locked="0" c_rotation="270" c_width="6.2" c_height="6.2" title="OUT1" c_shape="ELLIPSE" pasteexpansion="0" solderexpansion="0.2"><ellipse c_etype="pad_shell" cx="4151" cy="3608.5" rx="3.1" ry="3.1" layerid="11" stroke-width="0"/><circle c_etype="pad_hole" cx="4151" cy="3608.5" r="1.75" layerid="11" stroke-width="0"/></g><g c_partid="part_pad" c_etype="pinpart" c_origin="4151,3598.5" layerid="11" number="4" net="OUT2" plated ="Y"  id="gge267" locked="0" c_rotation="270" c_width="6.2" c_height="6.2" title="OUT2" c_shape="ELLIPSE" pasteexpansion="0" solderexpansion="0.2"><ellipse c_etype="pad_shell" cx="4151" cy="3598.5" rx="3.1" ry="3.1" layerid="11" stroke-width="0"/><circle c_etype="pad_hole" cx="4151" cy="3598.5" r="1.75" layerid="11" stroke-width="0"/></g><g c_partid="part_pad" c_etype="pinpart" c_origin="4151,3588.5" layerid="11" number="3" net="GND" plated ="Y"  id="gge282" locked="0" c_rotation="270" c_width="6.2" c_height="6.2" title="GND" c_shape="ELLIPSE" pasteexpansion="0" solderexpansion="0.2"><ellipse c_etype="pad_shell" cx="4151" cy="3588.5" rx="3.1" ry="3.1" layerid="11" stroke-width="0"/><circle c_etype="pad_hole" cx="4151" cy="3588.5" r="1.75" layerid="11" stroke-width="0"/></g><g c_partid="part_pad" c_etype="pinpart" c_origin="4151,3578.5" layerid="11" number="2" net="R7_1" plated ="Y"  id="gge297" locked="0" c_rotation="270" c_width="6.2" c_height="6.2" title="R7_1" c_shape="ELLIPSE" pasteexpansion="0" solderexpansion="0.2"><ellipse c_etype="pad_shell" cx="4151" cy="3578.5" rx="3.1" ry="3.1" layerid="11" stroke-width="0"/><circle c_etype="pad_hole" cx="4151" cy="3578.5" r="1.75" layerid="11" stroke-width="0"/></g><g c_partid="part_pad" c_etype="pinpart" c_origin="4151,3568.5" layerid="11" number="1" net="R8_1" plated ="Y"  id="gge312" locked="0" c_rotation="270" c_width="6.2" c_height="6.2" title="R8_1" c_shape="RECT" pasteexpansion="0" solderexpansion="0.2"><polygon  c_etype="pad_shell" points="4154.1 3565.4 4154.1 3571.6 4147.9 3571.6 4147.9 3565.4" layerid="11" stroke-width="0" /><circle c_etype="pad_hole" cx="4151" cy="3568.5" r="1.75" layerid="11" stroke-width="0"/></g><g c_partid="part_pad" c_etype="pinpart" c_origin="4112,3503.5" layerid="11" number="1" net="+6V" plated ="Y"  id="gge366" locked="0" c_rotation="0" c_width="6.2" c_height="6.2" title="+6V" c_shape="RECT" pasteexpansion="0" solderexpansion="0.2"><polygon  c_etype="pad_shell" points="4108.9 3500.4 4115.1 3500.4 4115.1 3506.6 4108.9 3506.6" layerid="11" stroke-width="0" /><circle c_etype="pad_hole" cx="4112" cy="3503.5" r="1.75" layerid="11" stroke-width="0"/></g><g c_partid="part_pad" c_etype="pinpart" c_origin="4112,3493.5" layerid="11" number="2" net="GND" plated ="Y"  id="gge381" locked="0" c_rotation="0" c_width="6.2" c_height="6.2" title="GND" c_shape="ELLIPSE" pasteexpansion="0" solderexpansion="0.2"><ellipse c_etype="pad_shell" cx="4112" cy="3493.5" rx="3.1" ry="3.1" layerid="11" stroke-width="0"/><circle c_etype="pad_hole" cx="4112" cy="3493.5" r="1.75" layerid="11" stroke-width="0"/></g><g c_partid="part_pad" c_etype="pinpart" c_origin="4100,3408" layerid="11" number="1" net="R4_1" plated ="Y"  id="gge438" locked="0" c_rotation="90" c_width="6.5" c_height="6.5" title="R4_1" c_shape="ELLIPSE" pasteexpansion="0" solderexpansion="0.2"><ellipse c_etype="pad_shell" cx="4100" cy="3408" rx="3.25" ry="3.25" layerid="11" stroke-width="0"/><circle c_etype="pad_hole" cx="4100" cy="3408" r="1.9" layerid="11" stroke-width="0"/></g><g c_partid="part_pad" c_etype="pinpart" c_origin="4100,3418" layerid="11" number="2" net="OUT1" plated ="Y"  id="gge453" locked="0" c_rotation="90" c_width="6.5" c_height="6.5" title="OUT1" c_shape="ELLIPSE" pasteexpansion="0" solderexpansion="0.2"><ellipse c_etype="pad_shell" cx="4100" cy="3418" rx="3.25" ry="3.25" layerid="11" stroke-width="0"/><circle c_etype="pad_hole" cx="4100" cy="3418" r="1.9" layerid="11" stroke-width="0"/></g><g c_partid="part_pad" c_etype="pinpart" c_origin="4109.5,3524.5" layerid="11" number="1" net="R5_1" plated ="Y"  id="gge510" locked="0" c_rotation="90" c_width="6.5" c_height="6.5" title="R5_1" c_shape="ELLIPSE" pasteexpansion="0" solderexpansion="0.2"><ellipse c_etype="pad_shell" cx="4109.5" cy="3524.5" rx="3.25" ry="3.25" layerid="11" stroke-width="0"/><circle c_etype="pad_hole" cx="4109.5" cy="3524.5" r="1.9" layerid="11" stroke-width="0"/></g><g c_partid="part_pad" c_etype="pinpart" c_origin="4109.5,3534.5" layerid="11" number="2" net="GND" plated ="Y"  id="gge525" locked="0" c_rotation="90" c_width="6.5" c_height="6.5" title="GND" c_shape="ELLIPSE" pasteexpansion="0" solderexpansion="0.2"><ellipse c_etype="pad_shell" cx="4109.5" cy="3534.5" rx="3.25" ry="3.25" layerid="11" stroke-width="0"/><circle c_etype="pad_hole" cx="4109.5" cy="3534.5" r="1.9" layerid="11" stroke-width="0"/></g><g c_partid="part_pad" c_etype="pinpart" c_origin="4182,3569" layerid="11" number="1" net="R1_1" plated ="Y"  id="gge582" locked="0" c_rotation="90" c_width="6.5" c_height="6.5" title="R1_1" c_shape="ELLIPSE" pasteexpansion="0" solderexpansion="0.2"><ellipse c_etype="pad_shell" cx="4182" cy="3569" rx="3.25" ry="3.25" layerid="11" stroke-width="0"/><circle c_etype="pad_hole" cx="4182" cy="3569" r="1.9" layerid="11" stroke-width="0"/></g><g c_partid="part_pad" c_etype="pinpart" c_origin="4182,3579" layerid="11" number="2" net="OUT2" plated ="Y"  id="gge597" locked="0" c_rotation="90" c_width="6.5" c_height="6.5" title="OUT2" c_shape="ELLIPSE" pasteexpansion="0" solderexpansion="0.2"><ellipse c_etype="pad_shell" cx="4182" cy="3579" rx="3.25" ry="3.25" layerid="11" stroke-width="0"/><circle c_etype="pad_hole" cx="4182" cy="3579" r="1.9" layerid="11" stroke-width="0"/></g><g c_partid="part_pad" c_etype="pinpart" c_origin="4107,3565" layerid="11" number="1" net="R6_1" plated ="Y"  id="gge654" locked="0" c_rotation="0" c_width="6.5" c_height="6.5" title="R6_1" c_shape="ELLIPSE" pasteexpansion="0" solderexpansion="0.2"><ellipse c_etype="pad_shell" cx="4107" cy="3565" rx="3.25" ry="3.25" layerid="11" stroke-width="0"/><circle c_etype="pad_hole" cx="4107" cy="3565" r="1.9" layerid="11" stroke-width="0"/></g><g c_partid="part_pad" c_etype="pinpart" c_origin="4097,3565" layerid="11" number="2" net="GND" plated ="Y"  id="gge669" locked="0" c_rotation="0" c_width="6.5" c_height="6.5" title="GND" c_shape="ELLIPSE" pasteexpansion="0" solderexpansion="0.2"><ellipse c_etype="pad_shell" cx="4097" cy="3565" rx="3.25" ry="3.25" layerid="11" stroke-width="0"/><circle c_etype="pad_hole" cx="4097" cy="3565" r="1.9" layerid="11" stroke-width="0"/></g><g c_partid="part_pad" c_etype="pinpart" c_origin="4089.5,3606" layerid="11" number="3" net="OUT2" plated ="Y"  id="gge726" locked="0" c_rotation="90" c_width="6" c_height="6" title="OUT2" c_shape="ELLIPSE" pasteexpansion="0" solderexpansion="0.2"><ellipse c_etype="pad_shell" cx="4089.5" cy="3606" rx="3" ry="3" layerid="11" stroke-width="0"/><circle c_etype="pad_hole" cx="4089.5" cy="3606" r="1.9685" layerid="11" stroke-width="0"/></g><g c_partid="part_pad" c_etype="pinpart" c_origin="4069.5,3596" layerid="11" number="2" net="R3_1" plated ="Y"  id="gge741" locked="0" c_rotation="90" c_width="6" c_height="6" title="R3_1" c_shape="ELLIPSE" pasteexpansion="0" solderexpansion="0.2"><ellipse c_etype="pad_shell" cx="4069.5" cy="3596" rx="3" ry="3" layerid="11" stroke-width="0"/><circle c_etype="pad_hole" cx="4069.5" cy="3596" r="1.9685" layerid="11" stroke-width="0"/></g><g c_partid="part_pad" c_etype="pinpart" c_origin="4089.5,3586" layerid="11" number="1" net="GND" plated ="Y"  id="gge756" locked="0" c_rotation="90" c_width="6" c_height="6" title="GND" c_shape="RECT" pasteexpansion="0" solderexpansion="0.2"><polygon  c_etype="pad_shell" points="4086.5 3589 4086.5 3583 4092.5 3583 4092.5 3589" layerid="11" stroke-width="0" /><circle c_etype="pad_hole" cx="4089.5" cy="3586" r="1.9685" layerid="11" stroke-width="0"/></g><g c_partid="part_pad" c_etype="pinpart" c_origin="4131,3607.5" layerid="11" number="3" net="OUT1" plated ="Y"  id="gge813" locked="0" c_rotation="90" c_width="6" c_height="6" title="OUT1" c_shape="ELLIPSE" pasteexpansion="0" solderexpansion="0.2"><ellipse c_etype="pad_shell" cx="4131" cy="3607.5" rx="3" ry="3" layerid="11" stroke-width="0"/><circle c_etype="pad_hole" cx="4131" cy="3607.5" r="1.9685" layerid="11" stroke-width="0"/></g><g c_partid="part_pad" c_etype="pinpart" c_origin="4111,3597.5" layerid="11" number="2" net="C1_2" plated ="Y"  id="gge828" locked="0" c_rotation="90" c_width="6" c_height="6" title="C1_2" c_shape="ELLIPSE" pasteexpansion="0" solderexpansion="0.2"><ellipse c_etype="pad_shell" cx="4111" cy="3597.5" rx="3" ry="3" layerid="11" stroke-width="0"/><circle c_etype="pad_hole" cx="4111" cy="3597.5" r="1.9685" layerid="11" stroke-width="0"/></g><g c_partid="part_pad" c_etype="pinpart" c_origin="4131,3587.5" layerid="11" number="1" net="GND" plated ="Y"  id="gge843" locked="0" c_rotation="90" c_width="6" c_height="6" title="GND" c_shape="RECT" pasteexpansion="0" solderexpansion="0.2"><polygon  c_etype="pad_shell" points="4128 3590.5 4128 3584.5 4134 3584.5 4134 3590.5" layerid="11" stroke-width="0" /><circle c_etype="pad_hole" cx="4131" cy="3587.5" r="1.9685" layerid="11" stroke-width="0"/></g><g c_partid="part_pad" c_etype="pinpart" c_origin="4189.5,3468.5" layerid="11" number="1" net="R1_1" plated ="Y"  id="gge912" locked="0" c_rotation="90" c_width="7.4" c_height="7.4" title="R1_1" c_shape="ELLIPSE" pasteexpansion="0" solderexpansion="0.2"><ellipse c_etype="pad_shell" cx="4189.5" cy="3468.5" rx="3.7" ry="3.7" layerid="11" stroke-width="0"/><circle c_etype="pad_hole" cx="4189.5" cy="3468.5" r="1.77" layerid="11" stroke-width="0"/></g><g c_partid="part_pad" c_etype="pinpart" c_origin="4189.5,3428.5" layerid="11" number="2" net="+3.3V" plated ="Y"  id="gge927" locked="0" c_rotation="90" c_width="7.4" c_height="7.4" title="+3.3V" c_shape="ELLIPSE" pasteexpansion="0" solderexpansion="0.2"><ellipse c_etype="pad_shell" cx="4189.5" cy="3428.5" rx="3.7" ry="3.7" layerid="11" stroke-width="0"/><circle c_etype="pad_hole" cx="4189.5" cy="3428.5" r="1.77" layerid="11" stroke-width="0"/></g><g c_partid="part_pad" c_etype="pinpart" c_origin="4133,3406.5" layerid="11" number="1" net="C1_2" plated ="Y"  id="gge996" locked="0" c_rotation="0" c_width="7.4" c_height="7.4" title="C1_2" c_shape="ELLIPSE" pasteexpansion="0" solderexpansion="0.2"><ellipse c_etype="pad_shell" cx="4133" cy="3406.5" rx="3.7" ry="3.7" layerid="11" stroke-width="0"/><circle c_etype="pad_hole" cx="4133" cy="3406.5" r="1.77" layerid="11" stroke-width="0"/></g><g c_partid="part_pad" c_etype="pinpart" c_origin="4173,3406.5" layerid="11" number="2" net="+3.3V" plated ="Y"  id="gge1011" locked="0" c_rotation="0" c_width="7.4" c_height="7.4" title="+3.3V" c_shape="ELLIPSE" pasteexpansion="0" solderexpansion="0.2"><ellipse c_etype="pad_shell" cx="4173" cy="3406.5" rx="3.7" ry="3.7" layerid="11" stroke-width="0"/><circle c_etype="pad_hole" cx="4173" cy="3406.5" r="1.77" layerid="11" stroke-width="0"/></g><g c_partid="part_pad" c_etype="pinpart" c_origin="4050,3448.5" layerid="11" number="1" net="R3_1" plated ="Y"  id="gge1080" locked="0" c_rotation="0" c_width="7.4" c_height="7.4" title="R3_1" c_shape="ELLIPSE" pasteexpansion="0" solderexpansion="0.2"><ellipse c_etype="pad_shell" cx="4050" cy="3448.5" rx="3.7" ry="3.7" layerid="11" stroke-width="0"/><circle c_etype="pad_hole" cx="4050" cy="3448.5" r="1.77" layerid="11" stroke-width="0"/></g><g c_partid="part_pad" c_etype="pinpart" c_origin="4090,3448.5" layerid="11" number="2" net="+3.3V" plated ="Y"  id="gge1095" locked="0" c_rotation="0" c_width="7.4" c_height="7.4" title="+3.3V" c_shape="ELLIPSE" pasteexpansion="0" solderexpansion="0.2"><ellipse c_etype="pad_shell" cx="4090" cy="3448.5" rx="3.7" ry="3.7" layerid="11" stroke-width="0"/><circle c_etype="pad_hole" cx="4090" cy="3448.5" r="1.77" layerid="11" stroke-width="0"/></g><g c_partid="part_pad" c_etype="pinpart" c_origin="4107.775,3397.013" layerid="11" number="1" net="R4_1" plated ="Y"  id="gge1164" locked="0" c_rotation="16" c_width="7.4" c_height="7.4" title="R4_1" c_shape="ELLIPSE" pasteexpansion="0" solderexpansion="0.2"><ellipse c_etype="pad_shell" cx="4107.775" cy="3397.013" rx="3.7" ry="3.7" layerid="11" stroke-width="0"/><circle c_etype="pad_hole" cx="4107.7748" cy="3397.0127" r="1.77" layerid="11" stroke-width="0"/></g><g c_partid="part_pad" c_etype="pinpart" c_origin="4146.225,3385.987" layerid="11" number="2" net="+3.3V" plated ="Y"  id="gge1179" locked="0" c_rotation="16" c_width="7.4" c_height="7.4" title="+3.3V" c_shape="ELLIPSE" pasteexpansion="0" solderexpansion="0.2"><ellipse c_etype="pad_shell" cx="4146.225" cy="3385.987" rx="3.7" ry="3.7" layerid="11" stroke-width="0"/><circle c_etype="pad_hole" cx="4146.2252" cy="3385.9873" r="1.77" layerid="11" stroke-width="0"/></g><g c_partid="part_pad" c_etype="pinpart" c_origin="4095.5,3512" layerid="11" number="1" net="R5_1" plated ="Y"  id="gge1248" locked="0" c_rotation="180" c_width="7.4" c_height="7.4" title="R5_1" c_shape="ELLIPSE" pasteexpansion="0" solderexpansion="0.2"><ellipse c_etype="pad_shell" cx="4095.5" cy="3512" rx="3.7" ry="3.7" layerid="11" stroke-width="0"/><circle c_etype="pad_hole" cx="4095.5" cy="3512" r="1.77" layerid="11" stroke-width="0"/></g><g c_partid="part_pad" c_etype="pinpart" c_origin="4055.5,3512" layerid="11" number="2" net="R3_1" plated ="Y"  id="gge1263" locked="0" c_rotation="180" c_width="7.4" c_height="7.4" title="R3_1" c_shape="ELLIPSE" pasteexpansion="0" solderexpansion="0.2"><ellipse c_etype="pad_shell" cx="4055.5" cy="3512" rx="3.7" ry="3.7" layerid="11" stroke-width="0"/><circle c_etype="pad_hole" cx="4055.5" cy="3512" r="1.77" layerid="11" stroke-width="0"/></g><g c_partid="part_pad" c_etype="pinpart" c_origin="4139.011,3539.09" layerid="11" number="1" net="R6_1" plated ="Y"  id="gge1332" locked="0" c_rotation="251" c_width="7.4" c_height="7.4" title="R6_1" c_shape="ELLIPSE" pasteexpansion="0" solderexpansion="0.2"><ellipse c_etype="pad_shell" cx="4139.011" cy="3539.09" rx="3.7" ry="3.7" layerid="11" stroke-width="0"/><circle c_etype="pad_hole" cx="4139.0114" cy="3539.0896" r="1.77" layerid="11" stroke-width="0"/></g><g c_partid="part_pad" c_etype="pinpart" c_origin="4125.989,3576.91" layerid="11" number="2" net="C1_2" plated ="Y"  id="gge1347" locked="0" c_rotation="251" c_width="7.4" c_height="7.4" title="C1_2" c_shape="ELLIPSE" pasteexpansion="0" solderexpansion="0.2"><ellipse c_etype="pad_shell" cx="4125.989" cy="3576.91" rx="3.7" ry="3.7" layerid="11" stroke-width="0"/><circle c_etype="pad_hole" cx="4125.9886" cy="3576.9104" r="1.77" layerid="11" stroke-width="0"/></g><g c_partid="part_pad" c_etype="pinpart" c_origin="4166.316,3576.633" layerid="11" number="1" net="R7_1" plated ="Y"  id="gge1416" locked="0" c_rotation="101" c_width="7.4" c_height="7.4" title="R7_1" c_shape="ELLIPSE" pasteexpansion="0" solderexpansion="0.2"><ellipse c_etype="pad_shell" cx="4166.316" cy="3576.633" rx="3.7" ry="3.7" layerid="11" stroke-width="0"/><circle c_etype="pad_hole" cx="4166.3162" cy="3576.6325" r="1.77" layerid="11" stroke-width="0"/></g><g c_partid="part_pad" c_etype="pinpart" c_origin="4158.684,3537.367" layerid="11" number="2" net="+3.3V" plated ="Y"  id="gge1431" locked="0" c_rotation="101" c_width="7.4" c_height="7.4" title="+3.3V" c_shape="ELLIPSE" pasteexpansion="0" solderexpansion="0.2"><ellipse c_etype="pad_shell" cx="4158.684" cy="3537.367" rx="3.7" ry="3.7" layerid="11" stroke-width="0"/><circle c_etype="pad_hole" cx="4158.6838" cy="3537.3675" r="1.77" layerid="11" stroke-width="0"/></g><g c_partid="part_pad" c_etype="pinpart" c_origin="4181.756,3551.18" layerid="11" number="1" net="R8_1" plated ="Y"  id="gge1500" locked="0" c_rotation="126" c_width="7.4" c_height="7.4" title="R8_1" c_shape="ELLIPSE" pasteexpansion="0" solderexpansion="0.2"><ellipse c_etype="pad_shell" cx="4181.756" cy="3551.18" rx="3.7" ry="3.7" layerid="11" stroke-width="0"/><circle c_etype="pad_hole" cx="4181.7557" cy="3551.1803" r="1.77" layerid="11" stroke-width="0"/></g><g c_partid="part_pad" c_etype="pinpart" c_origin="4158.244,3518.82" layerid="11" number="2" net="+6V" plated ="Y"  id="gge1515" locked="0" c_rotation="126" c_width="7.4" c_height="7.4" title="+6V" c_shape="ELLIPSE" pasteexpansion="0" solderexpansion="0.2"><ellipse c_etype="pad_shell" cx="4158.244" cy="3518.82" rx="3.7" ry="3.7" layerid="11" stroke-width="0"/><circle c_etype="pad_hole" cx="4158.2443" cy="3518.8197" r="1.77" layerid="11" stroke-width="0"/></g><g c_partid="part_pad" c_etype="pinpart" c_origin="4131.833,3497.172" layerid="11" number="1" net="U1_2" plated ="Y"  id="gge1584" locked="0" c_rotation="69" c_width="7.4" c_height="7.4" title="U1_2" c_shape="ELLIPSE" pasteexpansion="0" solderexpansion="0.2"><ellipse c_etype="pad_shell" cx="4131.833" cy="3497.172" rx="3.7" ry="3.7" layerid="11" stroke-width="0"/><circle c_etype="pad_hole" cx="4131.8326" cy="3497.1716" r="1.77" layerid="11" stroke-width="0"/></g><g c_partid="part_pad" c_etype="pinpart" c_origin="4146.167,3459.828" layerid="11" number="2" net="+3.3V" plated ="Y"  id="gge1599" locked="0" c_rotation="69" c_width="7.4" c_height="7.4" title="+3.3V" c_shape="ELLIPSE" pasteexpansion="0" solderexpansion="0.2"><ellipse c_etype="pad_shell" cx="4146.167" cy="3459.828" rx="3.7" ry="3.7" layerid="11" stroke-width="0"/><circle c_etype="pad_hole" cx="4146.1674" cy="3459.8284" r="1.77" layerid="11" stroke-width="0"/></g><g c_partid="part_pad" c_etype="pinpart" c_origin="4087.176,3382.682" layerid="11" number="1" net="U1_1" plated ="Y"  id="gge1668" locked="0" c_rotation="255" c_width="7.4" c_height="7.4" title="U1_1" c_shape="ELLIPSE" pasteexpansion="0" solderexpansion="0.2"><ellipse c_etype="pad_shell" cx="4087.176" cy="3382.682" rx="3.7" ry="3.7" layerid="11" stroke-width="0"/><circle c_etype="pad_hole" cx="4087.1764" cy="3382.6815" r="1.77" layerid="11" stroke-width="0"/></g><g c_partid="part_pad" c_etype="pinpart" c_origin="4076.824,3421.319" layerid="11" number="2" net="+3.3V" plated ="Y"  id="gge1683" locked="0" c_rotation="255" c_width="7.4" c_height="7.4" title="+3.3V" c_shape="ELLIPSE" pasteexpansion="0" solderexpansion="0.2"><ellipse c_etype="pad_shell" cx="4076.824" cy="3421.319" rx="3.7" ry="3.7" layerid="11" stroke-width="0"/><circle c_etype="pad_hole" cx="4076.8236" cy="3421.3185" r="1.77" layerid="11" stroke-width="0"/></g><g c_partid="part_pad" c_etype="pinpart" c_origin="4084.5,3357" layerid="11" number="1" net="U1_1" plated ="Y"  id="gge1752" locked="0" c_rotation="0" c_width="7.4" c_height="7.4" title="U1_1" c_shape="ELLIPSE" pasteexpansion="0" solderexpansion="0.2"><ellipse c_etype="pad_shell" cx="4084.5" cy="3357" rx="3.7" ry="3.7" layerid="11" stroke-width="0"/><circle c_etype="pad_hole" cx="4084.5" cy="3357" r="1.77" layerid="11" stroke-width="0"/></g><g c_partid="part_pad" c_etype="pinpart" c_origin="4124.5,3357" layerid="11" number="2" net="+3.3V" plated ="Y"  id="gge1767" locked="0" c_rotation="0" c_width="7.4" c_height="7.4" title="+3.3V" c_shape="ELLIPSE" pasteexpansion="0" solderexpansion="0.2"><ellipse c_etype="pad_shell" cx="4124.5" cy="3357" rx="3.7" ry="3.7" layerid="11" stroke-width="0"/><circle c_etype="pad_hole" cx="4124.5" cy="3357" r="1.77" layerid="11" stroke-width="0"/></g><g c_partid="part_pad" c_etype="pinpart" c_origin="4027,3346" layerid="11" number="1" net="R12_1" plated ="Y"  id="gge1836" locked="0" c_rotation="0" c_width="7.4" c_height="7.4" title="R12_1" c_shape="ELLIPSE" pasteexpansion="0" solderexpansion="0.2"><ellipse c_etype="pad_shell" cx="4027" cy="3346" rx="3.7" ry="3.7" layerid="11" stroke-width="0"/><circle c_etype="pad_hole" cx="4027" cy="3346" r="1.77" layerid="11" stroke-width="0"/></g><g c_partid="part_pad" c_etype="pinpart" c_origin="4067,3346" layerid="11" number="2" net="U1_1" plated ="Y"  id="gge1851" locked="0" c_rotation="0" c_width="7.4" c_height="7.4" title="U1_1" c_shape="ELLIPSE" pasteexpansion="0" solderexpansion="0.2"><ellipse c_etype="pad_shell" cx="4067" cy="3346" rx="3.7" ry="3.7" layerid="11" stroke-width="0"/><circle c_etype="pad_hole" cx="4067" cy="3346" r="1.77" layerid="11" stroke-width="0"/></g><g c_partid="part_pad" c_etype="pinpart" c_origin="4028.5,3476.5" layerid="11" number="1" net="R12_1" plated ="Y"  id="gge1920" locked="0" c_rotation="0" c_width="7.4" c_height="7.4" title="R12_1" c_shape="ELLIPSE" pasteexpansion="0" solderexpansion="0.2"><ellipse c_etype="pad_shell" cx="4028.5" cy="3476.5" rx="3.7" ry="3.7" layerid="11" stroke-width="0"/><circle c_etype="pad_hole" cx="4028.5" cy="3476.5" r="1.77" layerid="11" stroke-width="0"/></g><g c_partid="part_pad" c_etype="pinpart" c_origin="4068.5,3476.5" layerid="11" number="2" net="U1_1" plated ="Y"  id="gge1935" locked="0" c_rotation="0" c_width="7.4" c_height="7.4" title="U1_1" c_shape="ELLIPSE" pasteexpansion="0" solderexpansion="0.2"><ellipse c_etype="pad_shell" cx="4068.5" cy="3476.5" rx="3.7" ry="3.7" layerid="11" stroke-width="0"/><circle c_etype="pad_hole" cx="4068.5" cy="3476.5" r="1.77" layerid="11" stroke-width="0"/></g><polyline points="4033.3386 3600.937 4033.3386 3605.837" stroke-width="1"  stroke-linecap="round" fill="none" layerid="3" net="" id="gge21" locked="0" /><polyline points="4036.0386 3603.437 4030.7386 3603.437" stroke-width="1"  stroke-linecap="round" fill="none" layerid="3" net="" id="gge24" locked="0" /><polyline points="4044.937 3423.6614 4049.837 3423.6614" stroke-width="1"  stroke-linecap="round" fill="none" layerid="3" net="" id="gge87" locked="0" /><polyline points="4047.437 3420.9614 4047.437 3426.2614" stroke-width="1"  stroke-linecap="round" fill="none" layerid="3" net="" id="gge90" locked="0" /><polyline points="4052.437 3384.1614 4057.337 3384.1614" stroke-width="1"  stroke-linecap="round" fill="none" layerid="3" net="" id="gge153" locked="0" /><polyline points="4054.937 3381.4614 4054.937 3386.7614" stroke-width="1"  stroke-linecap="round" fill="none" layerid="3" net="" id="gge156" locked="0" /><polyline points="4156 3571 4156 3563.5 4146 3563.5 4146 3613.5 4156 3613.5" stroke-width="0.8"  stroke-linecap="round" fill="none" layerid="3" net="" id="gge219" locked="0" /><polyline points="4156 3613.5 4156 3571" stroke-width="0.79921"  stroke-linecap="round" fill="none" layerid="3" net="" id="gge222" locked="0" /><polyline points="4107 3488.5 4116.9 3488.5 4116.9 3508.5 4107 3508.5 4107 3488.5" stroke-width="0.8"  stroke-linecap="round" fill="none" layerid="3" net="" id="gge345" locked="0" /><polyline points="4094.8819 3421.7794 4105.1181 3421.7794" stroke-width="1"  stroke-linecap="round" fill="none" layerid="3" net="" id="gge414" locked="0" /><polyline points="4104.3819 3538.2794 4114.6181 3538.2794" stroke-width="1"  stroke-linecap="round" fill="none" layerid="3" net="" id="gge486" locked="0" /><polyline points="4176.8819 3582.7794 4187.1181 3582.7794" stroke-width="1"  stroke-linecap="round" fill="none" layerid="3" net="" id="gge558" locked="0" /><polyline points="4093.2206 3559.8819 4093.2206 3570.1181" stroke-width="1"  stroke-linecap="round" fill="none" layerid="3" net="" id="gge630" locked="0" /><polyline points="4077.5 3596 4072.5 3596" stroke-width="1"  stroke-linecap="round" fill="none" layerid="3" net="" id="gge702" locked="0" /><polyline points="4095.5 3606 4095.5 3586" stroke-width="1"  stroke-linecap="round" fill="none" layerid="3" net="" id="gge705" locked="0" /><polyline points="4119 3597.5 4114 3597.5" stroke-width="1"  stroke-linecap="round" fill="none" layerid="3" net="" id="gge789" locked="0" /><polyline points="4137 3607.5 4137 3587.5" stroke-width="1"  stroke-linecap="round" fill="none" layerid="3" net="" id="gge792" locked="0" /><polyline points="4194.2 3460.9 4184.8 3460.9" stroke-width="1"  stroke-linecap="round" fill="none" layerid="3" net="" id="gge876" locked="0" /><polyline points="4184.8 3460.9 4184.8 3436.1" stroke-width="1"  stroke-linecap="round" fill="none" layerid="3" net="" id="gge879" locked="0" /><polyline points="4184.8 3436.1 4194.2 3436.1" stroke-width="1"  stroke-linecap="round" fill="none" layerid="3" net="" id="gge882" locked="0" /><polyline points="4194.2 3436.1 4194.2 3460.9" stroke-width="1"  stroke-linecap="round" fill="none" layerid="3" net="" id="gge885" locked="0" /><polyline points="4140.6 3411.2 4140.6 3401.8" stroke-width="1"  stroke-linecap="round" fill="none" layerid="3" net="" id="gge960" locked="0" /><polyline points="4140.6 3401.8 4165.4 3401.8" stroke-width="1"  stroke-linecap="round" fill="none" layerid="3" net="" id="gge963" locked="0" /><polyline points="4165.4 3401.8 4165.4 3411.2" stroke-width="1"  stroke-linecap="round" fill="none" layerid="3" net="" id="gge966" locked="0" /><polyline points="4165.4 3411.2 4140.6 3411.2" stroke-width="1"  stroke-linecap="round" fill="none" layerid="3" net="" id="gge969" locked="0" /><polyline points="4057.6 3453.2 4057.6 3443.8" stroke-width="1"  stroke-linecap="round" fill="none" layerid="3" net="" id="gge1044" locked="0" /><polyline points="4057.6 3443.8 4082.4 3443.8" stroke-width="1"  stroke-linecap="round" fill="none" layerid="3" net="" id="gge1047" locked="0" /><polyline points="4082.4 3443.8 4082.4 3453.2" stroke-width="1"  stroke-linecap="round" fill="none" layerid="3" net="" id="gge1050" locked="0" /><polyline points="4082.4 3453.2 4057.6 3453.2" stroke-width="1"  stroke-linecap="round" fill="none" layerid="3" net="" id="gge1053" locked="0" /><polyline points="4116.3759 3399.4358 4113.7849 3390.4" stroke-width="1"  stroke-linecap="round" fill="none" layerid="3" net="" id="gge1128" locked="0" /><polyline points="4113.7849 3390.4 4137.6241 3383.5642" stroke-width="1"  stroke-linecap="round" fill="none" layerid="3" net="" id="gge1131" locked="0" /><polyline points="4137.6241 3383.5642 4140.2151 3392.6" stroke-width="1"  stroke-linecap="round" fill="none" layerid="3" net="" id="gge1134" locked="0" /><polyline points="4140.2151 3392.6 4116.3759 3399.4358" stroke-width="1"  stroke-linecap="round" fill="none" layerid="3" net="" id="gge1137" locked="0" /><polyline points="4087.9 3507.3 4087.9 3516.7" stroke-width="1"  stroke-linecap="round" fill="none" layerid="3" net="" id="gge1212" locked="0" /><polyline points="4087.9 3516.7 4063.1 3516.7" stroke-width="1"  stroke-linecap="round" fill="none" layerid="3" net="" id="gge1215" locked="0" /><polyline points="4063.1 3516.7 4063.1 3507.3" stroke-width="1"  stroke-linecap="round" fill="none" layerid="3" net="" id="gge1218" locked="0" /><polyline points="4063.1 3507.3 4087.9 3507.3" stroke-width="1"  stroke-linecap="round" fill="none" layerid="3" net="" id="gge1221" locked="0" /><polyline points="4132.0931 3544.7454 4140.9811 3547.8058" stroke-width="1"  stroke-linecap="round" fill="none" layerid="3" net="" id="gge1296" locked="0" /><polyline points="4140.9811 3547.8058 4132.9069 3571.2546" stroke-width="1"  stroke-linecap="round" fill="none" layerid="3" net="" id="gge1299" locked="0" /><polyline points="4132.9069 3571.2546 4124.0189 3568.1942" stroke-width="1"  stroke-linecap="round" fill="none" layerid="3" net="" id="gge1302" locked="0" /><polyline points="4124.0189 3568.1942 4132.0931 3544.7454" stroke-width="1"  stroke-linecap="round" fill="none" layerid="3" net="" id="gge1305" locked="0" /><polyline points="4169.4797 3568.2753 4160.2524 3570.069" stroke-width="1"  stroke-linecap="round" fill="none" layerid="3" net="" id="gge1380" locked="0" /><polyline points="4160.2524 3570.069 4155.5203 3545.7247" stroke-width="1"  stroke-linecap="round" fill="none" layerid="3" net="" id="gge1383" locked="0" /><polyline points="4155.5203 3545.7247 4164.7476 3543.931" stroke-width="1"  stroke-linecap="round" fill="none" layerid="3" net="" id="gge1386" locked="0" /><polyline points="4164.7476 3543.931 4169.4797 3568.2753" stroke-width="1"  stroke-linecap="round" fill="none" layerid="3" net="" id="gge1389" locked="0" /><polyline points="4181.0909 3542.2692 4173.4862 3547.7944" stroke-width="1"  stroke-linecap="round" fill="none" layerid="3" net="" id="gge1464" locked="0" /><polyline points="4173.4862 3547.7944 4158.9091 3527.7308" stroke-width="1"  stroke-linecap="round" fill="none" layerid="3" net="" id="gge1467" locked="0" /><polyline points="4158.9091 3527.7308 4166.5138 3522.2056" stroke-width="1"  stroke-linecap="round" fill="none" layerid="3" net="" id="gge1470" locked="0" /><polyline points="4166.5138 3522.2056 4181.0909 3542.2692" stroke-width="1"  stroke-linecap="round" fill="none" layerid="3" net="" id="gge1473" locked="0" /><polyline points="4138.944 3491.7608 4130.1684 3488.392" stroke-width="1"  stroke-linecap="round" fill="none" layerid="3" net="" id="gge1548" locked="0" /><polyline points="4130.1684 3488.392 4139.056 3465.2392" stroke-width="1"  stroke-linecap="round" fill="none" layerid="3" net="" id="gge1551" locked="0" /><polyline points="4139.056 3465.2392 4147.8316 3468.608" stroke-width="1"  stroke-linecap="round" fill="none" layerid="3" net="" id="gge1554" locked="0" /><polyline points="4147.8316 3468.608 4138.944 3491.7608" stroke-width="1"  stroke-linecap="round" fill="none" layerid="3" net="" id="gge1557" locked="0" /><polyline points="4080.6695 3388.8061 4089.7492 3391.239" stroke-width="1"  stroke-linecap="round" fill="none" layerid="3" net="" id="gge1632" locked="0" /><polyline points="4089.7492 3391.239 4083.3305 3415.1939" stroke-width="1"  stroke-linecap="round" fill="none" layerid="3" net="" id="gge1635" locked="0" /><polyline points="4083.3305 3415.1939 4074.2508 3412.761" stroke-width="1"  stroke-linecap="round" fill="none" layerid="3" net="" id="gge1638" locked="0" /><polyline points="4074.2508 3412.761 4080.6695 3388.8061" stroke-width="1"  stroke-linecap="round" fill="none" layerid="3" net="" id="gge1641" locked="0" /><polyline points="4092.1 3361.7 4092.1 3352.3" stroke-width="1"  stroke-linecap="round" fill="none" layerid="3" net="" id="gge1716" locked="0" /><polyline points="4092.1 3352.3 4116.9 3352.3" stroke-width="1"  stroke-linecap="round" fill="none" layerid="3" net="" id="gge1719" locked="0" /><polyline points="4116.9 3352.3 4116.9 3361.7" stroke-width="1"  stroke-linecap="round" fill="none" layerid="3" net="" id="gge1722" locked="0" /><polyline points="4116.9 3361.7 4092.1 3361.7" stroke-width="1"  stroke-linecap="round" fill="none" layerid="3" net="" id="gge1725" locked="0" /><polyline points="4034.6 3350.7 4034.6 3341.3" stroke-width="1"  stroke-linecap="round" fill="none" layerid="3" net="" id="gge1800" locked="0" /><polyline points="4034.6 3341.3 4059.4 3341.3" stroke-width="1"  stroke-linecap="round" fill="none" layerid="3" net="" id="gge1803" locked="0" /><polyline points="4059.4 3341.3 4059.4 3350.7" stroke-width="1"  stroke-linecap="round" fill="none" layerid="3" net="" id="gge1806" locked="0" /><polyline points="4059.4 3350.7 4034.6 3350.7" stroke-width="1"  stroke-linecap="round" fill="none" layerid="3" net="" id="gge1809" locked="0" /><polyline points="4036.1 3481.2 4036.1 3471.8" stroke-width="1"  stroke-linecap="round" fill="none" layerid="3" net="" id="gge1884" locked="0" /><polyline points="4036.1 3471.8 4060.9 3471.8" stroke-width="1"  stroke-linecap="round" fill="none" layerid="3" net="" id="gge1887" locked="0" /><polyline points="4060.9 3471.8 4060.9 3481.2" stroke-width="1"  stroke-linecap="round" fill="none" layerid="3" net="" id="gge1890" locked="0" /><polyline points="4060.9 3481.2 4036.1 3481.2" stroke-width="1"  stroke-linecap="round" fill="none" layerid="3" net="" id="gge1893" locked="0" /><g c_partid="part_pcbtext" c_etype="" c_origin="4018.848,3596.852" c_rotation="90" c_mirror="0" id="gge9" locked="0" layerid="3" c_shapetype="group" display="none"><path c_fontsize="4.5" c_fontfamily="" c_text="100u" d="M 4015.1276 3596.8516 L 4014.9176 3596.4416 L 4014.3076 3595.8316 L 4018.5976 3595.8316 M 4014.3076 3593.2516 L 4014.5076 3593.8616 L 4015.1276 3594.2716 L 4016.1476 3594.4816 L 4016.7576 3594.4816 L 4017.7876 3594.2716 L 4018.3976 3593.8616 L 4018.5976 3593.2516 L 4018.5976 3592.8416 L 4018.3976 3592.2316 L 4017.7876 3591.8216 L 4016.7576 3591.6116 L 4016.1476 3591.6116 L 4015.1276 3591.8216 L 4014.5076 3592.2316 L 4014.3076 3592.8416 L 4014.3076 3593.2516 M 4014.3076 3589.0416 L 4014.5076 3589.6516 L 4015.1276 3590.0616 L 4016.1476 3590.2616 L 4016.7576 3590.2616 L 4017.7876 3590.0616 L 4018.3976 3589.6516 L 4018.5976 3589.0416 L 4018.5976 3588.6316 L 4018.3976 3588.0116 L 4017.7876 3587.6016 L 4016.7576 3587.4016 L 4016.1476 3587.4016 L 4015.1276 3587.6016 L 4014.5076 3588.0116 L 4014.3076 3588.6316 L 4014.3076 3589.0416 M 4015.7376 3586.0516 L 4017.7876 3586.0516 L 4018.3976 3585.8516 L 4018.5976 3585.4416 L 4018.5976 3584.8216 L 4018.3976 3584.4116 L 4017.7876 3583.8016 M 4015.7376 3583.8016 L 4018.5976 3583.8016" fill="none"  stroke-width="0.6" c_note="note_name" /></g><g c_partid="part_pcbtext" c_etype="" c_origin="4025.848,3596.852" c_rotation="90" c_mirror="0" id="gge15" locked="0" layerid="3" c_shapetype="group" ><path c_fontsize="4.5" c_fontfamily="" c_text="C1" d="M 4022.3276 3593.7816 L 4021.9176 3593.9916 L 4021.5076 3594.4016 L 4021.3076 3594.8016 L 4021.3076 3595.6216 L 4021.5076 3596.0316 L 4021.9176 3596.4416 L 4022.3276 3596.6516 L 4022.9476 3596.8516 L 4023.9676 3596.8516 L 4024.5776 3596.6516 L 4024.9876 3596.4416 L 4025.3976 3596.0316 L 4025.5976 3595.6216 L 4025.5976 3594.8016 L 4025.3976 3594.4016 L 4024.9876 3593.9916 L 4024.5776 3593.7816 M 4022.1276 3592.4316 L 4021.9176 3592.0216 L 4021.3076 3591.4116 L 4025.5976 3591.4116" fill="none"  stroke-width="0.6" c_note="note_pre" /></g><g c_partid="part_pcbtext" c_etype="" c_origin="4027.802,3442.942" c_rotation="0" c_mirror="0" id="gge75" locked="0" layerid="3" c_shapetype="group" display="none"><path c_fontsize="4.5" c_fontfamily="" c_text="100u" d="M 4027.8015 3439.2223 L 4028.2115 3439.0123 L 4028.8215 3438.4023 L 4028.8215 3442.6923 M 4031.4015 3438.4023 L 4030.7915 3438.6023 L 4030.3815 3439.2223 L 4030.1715 3440.2423 L 4030.1715 3440.8523 L 4030.3815 3441.8823 L 4030.7915 3442.4923 L 4031.4015 3442.6923 L 4031.8115 3442.6923 L 4032.4215 3442.4923 L 4032.8315 3441.8823 L 4033.0415 3440.8523 L 4033.0415 3440.2423 L 4032.8315 3439.2223 L 4032.4215 3438.6023 L 4031.8115 3438.4023 L 4031.4015 3438.4023 M 4035.6115 3438.4023 L 4035.0015 3438.6023 L 4034.5915 3439.2223 L 4034.3915 3440.2423 L 4034.3915 3440.8523 L 4034.5915 3441.8823 L 4035.0015 3442.4923 L 4035.6115 3442.6923 L 4036.0215 3442.6923 L 4036.6415 3442.4923 L 4037.0515 3441.8823 L 4037.2515 3440.8523 L 4037.2515 3440.2423 L 4037.0515 3439.2223 L 4036.6415 3438.6023 L 4036.0215 3438.4023 L 4035.6115 3438.4023 M 4038.6015 3439.8323 L 4038.6015 3441.8823 L 4038.8015 3442.4923 L 4039.2115 3442.6923 L 4039.8315 3442.6923 L 4040.2415 3442.4923 L 4040.8515 3441.8823 M 4040.8515 3439.8323 L 4040.8515 3442.6923" fill="none"  stroke-width="0.6" c_note="note_name" /></g><g c_partid="part_pcbtext" c_etype="" c_origin="4040.852,3431.152" c_rotation="180" c_mirror="0" id="gge81" locked="0" layerid="3" c_shapetype="group" ><path c_fontsize="4.5" c_fontfamily="" c_text="C2" d="M 4037.7816 3434.6724 L 4037.9916 3435.0824 L 4038.4016 3435.4924 L 4038.8016 3435.6924 L 4039.6216 3435.6924 L 4040.0316 3435.4924 L 4040.4416 3435.0824 L 4040.6516 3434.6724 L 4040.8516 3434.0524 L 4040.8516 3433.0324 L 4040.6516 3432.4224 L 4040.4416 3432.0124 L 4040.0316 3431.6024 L 4039.6216 3431.4024 L 4038.8016 3431.4024 L 4038.4016 3431.6024 L 4037.9916 3432.0124 L 4037.7816 3432.4224 M 4036.2316 3434.6724 L 4036.2316 3434.8724 L 4036.0216 3435.2824 L 4035.8216 3435.4924 L 4035.4116 3435.6924 L 4034.5916 3435.6924 L 4034.1816 3435.4924 L 4033.9816 3435.2824 L 4033.7716 3434.8724 L 4033.7716 3434.4624 L 4033.9816 3434.0524 L 4034.3916 3433.4424 L 4036.4316 3431.4024 L 4033.5716 3431.4024" fill="none"  stroke-width="0.6" c_note="note_pre" /></g><g c_partid="part_pcbtext" c_etype="" c_origin="4037.472,3403.442" c_rotation="0" c_mirror="0" id="gge141" locked="0" layerid="3" c_shapetype="group" display="none"><path c_fontsize="4.5" c_fontfamily="" c_text="47u" d="M 4039.5216 3398.9023 L 4037.4716 3401.7623 L 4040.5416 3401.7623 M 4039.5216 3398.9023 L 4039.5216 3403.1923 M 4044.7516 3398.9023 L 4042.7116 3403.1923 M 4041.8916 3398.9023 L 4044.7516 3398.9023 M 4046.1016 3400.3323 L 4046.1016 3402.3823 L 4046.3116 3402.9923 L 4046.7216 3403.1923 L 4047.3316 3403.1923 L 4047.7416 3402.9923 L 4048.3516 3402.3823 M 4048.3516 3400.3323 L 4048.3516 3403.1923" fill="none"  stroke-width="0.6" c_note="note_name" /></g><g c_partid="part_pcbtext" c_etype="" c_origin="4048.352,3391.652" c_rotation="180" c_mirror="0" id="gge147" locked="0" layerid="3" c_shapetype="group" ><path c_fontsize="4.5" c_fontfamily="" c_text="C3" d="M 4045.2816 3395.1724 L 4045.4916 3395.5824 L 4045.9016 3395.9924 L 4046.3016 3396.1924 L 4047.1216 3396.1924 L 4047.5316 3395.9924 L 4047.9416 3395.5824 L 4048.1516 3395.1724 L 4048.3516 3394.5524 L 4048.3516 3393.5324 L 4048.1516 3392.9224 L 4047.9416 3392.5124 L 4047.5316 3392.1024 L 4047.1216 3391.9024 L 4046.3016 3391.9024 L 4045.9016 3392.1024 L 4045.4916 3392.5124 L 4045.2816 3392.9224 M 4043.5216 3396.1924 L 4041.2716 3396.1924 L 4042.5016 3394.5524 L 4041.8916 3394.5524 L 4041.4816 3394.3524 L 4041.2716 3394.1524 L 4041.0716 3393.5324 L 4041.0716 3393.1224 L 4041.2716 3392.5124 L 4041.6816 3392.1024 L 4042.3016 3391.9024 L 4042.9116 3391.9024 L 4043.5216 3392.1024 L 4043.7316 3392.3024 L 4043.9316 3392.7124" fill="none"  stroke-width="0.6" c_note="note_pre" /></g><g c_partid="part_pcbtext" c_etype="" c_origin="4167.35,3642.69" c_rotation="90" c_mirror="0" id="gge207" locked="0" layerid="3" c_shapetype="group" display="none"><path c_fontsize="4.5" c_fontfamily="" c_text="HDR-F-2.54_1x5" d="M 4162.8101 3642.6899 L 4167.1001 3642.6899 M 4162.8101 3639.8299 L 4167.1001 3639.8299 M 4164.8501 3642.6899 L 4164.8501 3639.8299 M 4162.8101 3638.4799 L 4167.1001 3638.4799 M 4162.8101 3638.4799 L 4162.8101 3637.0399 L 4163.0101 3636.4299 L 4163.4201 3636.0199 L 4163.8301 3635.8199 L 4164.4501 3635.6099 L 4165.4701 3635.6099 L 4166.0801 3635.8199 L 4166.4901 3636.0199 L 4166.9001 3636.4299 L 4167.1001 3637.0399 L 4167.1001 3638.4799 M 4162.8101 3634.2599 L 4167.1001 3634.2599 M 4162.8101 3634.2599 L 4162.8101 3632.4199 L 4163.0101 3631.8099 L 4163.2201 3631.5999 L 4163.6301 3631.3999 L 4164.0401 3631.3999 L 4164.4501 3631.5999 L 4164.6501 3631.8099 L 4164.8501 3632.4199 L 4164.8501 3634.2599 M 4164.8501 3632.8299 L 4167.1001 3631.3999 M 4165.2601 3630.0499 L 4165.2601 3626.3699 M 4162.8101 3625.0199 L 4167.1001 3625.0199 M 4162.8101 3625.0199 L 4162.8101 3622.3599 M 4164.8501 3625.0199 L 4164.8501 3623.3799 M 4165.2601 3621.0099 L 4165.2601 3617.3299 M 4163.8301 3615.7699 L 4163.6301 3615.7699 L 4163.2201 3615.5699 L 4163.0101 3615.3599 L 4162.8101 3614.9499 L 4162.8101 3614.1399 L 4163.0101 3613.7299 L 4163.2201 3613.5199 L 4163.6301 3613.3199 L 4164.0401 3613.3199 L 4164.4501 3613.5199 L 4165.0601 3613.9299 L 4167.1001 3615.9799 L 4167.1001 3613.1099 M 4166.0801 3611.5599 L 4166.2901 3611.7599 L 4166.4901 3611.5599 L 4166.2901 3611.3499 L 4166.0801 3611.5599 M 4162.8101 3607.5499 L 4162.8101 3609.5899 L 4164.6501 3609.7999 L 4164.4501 3609.5899 L 4164.2401 3608.9799 L 4164.2401 3608.3699 L 4164.4501 3607.7499 L 4164.8501 3607.3399 L 4165.4701 3607.1399 L 4165.8801 3607.1399 L 4166.4901 3607.3399 L 4166.9001 3607.7499 L 4167.1001 3608.3699 L 4167.1001 3608.9799 L 4166.9001 3609.5899 L 4166.7001 3609.7999 L 4166.2901 3609.9999 M 4162.8101 3603.7399 L 4165.6701 3605.7899 L 4165.6701 3602.7199 M 4162.8101 3603.7399 L 4167.1001 3603.7399 M 4168.5401 3601.3699 L 4168.5401 3597.6899 M 4163.6301 3596.3399 L 4163.4201 3595.9299 L 4162.8101 3595.3199 L 4167.1001 3595.3199 M 4164.2401 3593.9699 L 4167.1001 3591.7199 M 4164.2401 3591.7199 L 4167.1001 3593.9699 M 4162.8101 3587.9099 L 4162.8101 3589.9599 L 4164.6501 3590.1599 L 4164.4501 3589.9599 L 4164.2401 3589.3399 L 4164.2401 3588.7299 L 4164.4501 3588.1199 L 4164.8501 3587.7099 L 4165.4701 3587.4999 L 4165.8801 3587.4999 L 4166.4901 3587.7099 L 4166.9001 3588.1199 L 4167.1001 3588.7299 L 4167.1001 3589.3399 L 4166.9001 3589.9599 L 4166.7001 3590.1599 L 4166.2901 3590.3699" fill="none"  stroke-width="0.6" c_note="note_name" /></g><g c_partid="part_pcbtext" c_etype="" c_origin="4157,3587.5" c_rotation="270" c_mirror="0" id="gge213" locked="0" layerid="3" c_shapetype="group" ><path c_fontsize="4.5" c_fontfamily="" c_text="H1" d="M 4161.54 3587.5 L 4157.25 3587.5 M 4161.54 3590.36 L 4157.25 3590.36 M 4159.5 3587.5 L 4159.5 3590.36 M 4160.72 3591.71 L 4160.93 3592.12 L 4161.54 3592.74 L 4157.25 3592.74" fill="none"  stroke-width="0.6" c_note="note_pre" /></g><g c_partid="part_pcbtext" c_etype="" c_origin="4099,3499.5" c_rotation="90" c_mirror="0" id="gge333" locked="0" layerid="3" c_shapetype="group" display="none"><path c_fontsize="4.5" c_fontfamily="" c_text="HDR-F-2.54_1x2" d="M 4094.46 3499.5 L 4098.75 3499.5 M 4094.46 3496.64 L 4098.75 3496.64 M 4096.5 3499.5 L 4096.5 3496.64 M 4094.46 3495.29 L 4098.75 3495.29 M 4094.46 3495.29 L 4094.46 3493.85 L 4094.66 3493.24 L 4095.07 3492.83 L 4095.48 3492.63 L 4096.1 3492.42 L 4097.12 3492.42 L 4097.73 3492.63 L 4098.14 3492.83 L 4098.55 3493.24 L 4098.75 3493.85 L 4098.75 3495.29 M 4094.46 3491.07 L 4098.75 3491.07 M 4094.46 3491.07 L 4094.46 3489.23 L 4094.66 3488.62 L 4094.87 3488.41 L 4095.28 3488.21 L 4095.69 3488.21 L 4096.1 3488.41 L 4096.3 3488.62 L 4096.5 3489.23 L 4096.5 3491.07 M 4096.5 3489.64 L 4098.75 3488.21 M 4096.91 3486.86 L 4096.91 3483.18 M 4094.46 3481.83 L 4098.75 3481.83 M 4094.46 3481.83 L 4094.46 3479.17 M 4096.5 3481.83 L 4096.5 3480.19 M 4096.91 3477.82 L 4096.91 3474.14 M 4095.48 3472.58 L 4095.28 3472.58 L 4094.87 3472.38 L 4094.66 3472.17 L 4094.46 3471.76 L 4094.46 3470.95 L 4094.66 3470.54 L 4094.87 3470.33 L 4095.28 3470.13 L 4095.69 3470.13 L 4096.1 3470.33 L 4096.71 3470.74 L 4098.75 3472.79 L 4098.75 3469.92 M 4097.73 3468.37 L 4097.94 3468.57 L 4098.14 3468.37 L 4097.94 3468.16 L 4097.73 3468.37 M 4094.46 3464.36 L 4094.46 3466.4 L 4096.3 3466.61 L 4096.1 3466.4 L 4095.89 3465.79 L 4095.89 3465.18 L 4096.1 3464.56 L 4096.5 3464.15 L 4097.12 3463.95 L 4097.53 3463.95 L 4098.14 3464.15 L 4098.55 3464.56 L 4098.75 3465.18 L 4098.75 3465.79 L 4098.55 3466.4 L 4098.35 3466.61 L 4097.94 3466.81 M 4094.46 3460.55 L 4097.32 3462.6 L 4097.32 3459.53 M 4094.46 3460.55 L 4098.75 3460.55 M 4100.19 3458.18 L 4100.19 3454.5 M 4095.28 3453.15 L 4095.07 3452.74 L 4094.46 3452.13 L 4098.75 3452.13 M 4095.89 3450.78 L 4098.75 3448.53 M 4095.89 3448.53 L 4098.75 3450.78 M 4095.48 3446.97 L 4095.28 3446.97 L 4094.87 3446.77 L 4094.66 3446.56 L 4094.46 3446.15 L 4094.46 3445.34 L 4094.66 3444.93 L 4094.87 3444.72 L 4095.28 3444.52 L 4095.69 3444.52 L 4096.1 3444.72 L 4096.71 3445.13 L 4098.75 3447.18 L 4098.75 3444.31" fill="none"  stroke-width="0.6" c_note="note_name" /></g><g c_partid="part_pcbtext" c_etype="" c_origin="4106,3499.5" c_rotation="90" c_mirror="0" id="gge339" locked="0" layerid="3" c_shapetype="group" ><path c_fontsize="4.5" c_fontfamily="" c_text="H2" d="M 4101.46 3499.5 L 4105.75 3499.5 M 4101.46 3496.64 L 4105.75 3496.64 M 4103.5 3499.5 L 4103.5 3496.64 M 4102.48 3495.08 L 4102.28 3495.08 L 4101.87 3494.88 L 4101.66 3494.67 L 4101.46 3494.26 L 4101.46 3493.45 L 4101.66 3493.04 L 4101.87 3492.83 L 4102.28 3492.63 L 4102.69 3492.63 L 4103.1 3492.83 L 4103.71 3493.24 L 4105.75 3495.29 L 4105.75 3492.42" fill="none"  stroke-width="0.6" c_note="note_pre" /></g><g c_partid="part_pcbtext" c_etype="" c_origin="4099,3395.618" c_rotation="0" c_mirror="0" id="gge402" locked="0" layerid="3" c_shapetype="group" display="none"><path c_fontsize="4.5" c_fontfamily="" c_text="LED-TH-5mm_G" d="M 4099 3391.078 L 4099 3395.368 M 4099 3395.368 L 4101.45 3395.368 M 4102.8 3391.078 L 4102.8 3395.368 M 4102.8 3391.078 L 4105.46 3391.078 M 4102.8 3393.118 L 4104.44 3393.118 M 4102.8 3395.368 L 4105.46 3395.368 M 4106.81 3391.078 L 4106.81 3395.368 M 4106.81 3391.078 L 4108.25 3391.078 L 4108.86 3391.278 L 4109.27 3391.688 L 4109.47 3392.098 L 4109.68 3392.718 L 4109.68 3393.738 L 4109.47 3394.348 L 4109.27 3394.758 L 4108.86 3395.168 L 4108.25 3395.368 L 4106.81 3395.368 M 4111.03 3393.528 L 4114.71 3393.528 M 4117.49 3391.078 L 4117.49 3395.368 M 4116.06 3391.078 L 4118.92 3391.078 M 4120.27 3391.078 L 4120.27 3395.368 M 4123.14 3391.078 L 4123.14 3395.368 M 4120.27 3393.118 L 4123.14 3393.118 M 4124.49 3393.528 L 4128.17 3393.528 M 4131.97 3391.078 L 4129.93 3391.078 L 4129.72 3392.918 L 4129.93 3392.718 L 4130.54 3392.508 L 4131.15 3392.508 L 4131.77 3392.718 L 4132.18 3393.118 L 4132.38 3393.738 L 4132.38 3394.148 L 4132.18 3394.758 L 4131.77 3395.168 L 4131.15 3395.368 L 4130.54 3395.368 L 4129.93 3395.168 L 4129.72 3394.968 L 4129.52 3394.558 M 4133.73 3392.508 L 4133.73 3395.368 M 4133.73 3393.328 L 4134.35 3392.718 L 4134.75 3392.508 L 4135.37 3392.508 L 4135.78 3392.718 L 4135.98 3393.328 L 4135.98 3395.368 M 4135.98 3393.328 L 4136.6 3392.718 L 4137 3392.508 L 4137.62 3392.508 L 4138.03 3392.718 L 4138.23 3393.328 L 4138.23 3395.368 M 4139.58 3392.508 L 4139.58 3395.368 M 4139.58 3393.328 L 4140.2 3392.718 L 4140.6 3392.508 L 4141.22 3392.508 L 4141.63 3392.718 L 4141.83 3393.328 L 4141.83 3395.368 M 4141.83 3393.328 L 4142.45 3392.718 L 4142.85 3392.508 L 4143.47 3392.508 L 4143.88 3392.718 L 4144.08 3393.328 L 4144.08 3395.368 M 4145.43 3396.808 L 4149.11 3396.808 M 4153.53 3392.098 L 4153.33 3391.688 L 4152.92 3391.278 L 4152.51 3391.078 L 4151.69 3391.078 L 4151.28 3391.278 L 4150.87 3391.688 L 4150.67 3392.098 L 4150.46 3392.718 L 4150.46 3393.738 L 4150.67 3394.348 L 4150.87 3394.758 L 4151.28 3395.168 L 4151.69 3395.368 L 4152.51 3395.368 L 4152.92 3395.168 L 4153.33 3394.758 L 4153.53 3394.348 L 4153.53 3393.738 M 4152.51 3393.738 L 4153.53 3393.738" fill="none"  stroke-width="0.6" c_note="note_name" /></g><g c_partid="part_pcbtext" c_etype="" c_origin="4099,3402.618" c_rotation="0" c_mirror="0" id="gge408" locked="0" layerid="3" c_shapetype="group" ><path c_fontsize="4.5" c_fontfamily="" c_text="LED1" d="M 4099 3398.078 L 4099 3402.368 M 4099 3402.368 L 4101.45 3402.368 M 4102.8 3398.078 L 4102.8 3402.368 M 4102.8 3398.078 L 4105.46 3398.078 M 4102.8 3400.118 L 4104.44 3400.118 M 4102.8 3402.368 L 4105.46 3402.368 M 4106.81 3398.078 L 4106.81 3402.368 M 4106.81 3398.078 L 4108.25 3398.078 L 4108.86 3398.278 L 4109.27 3398.688 L 4109.47 3399.098 L 4109.68 3399.718 L 4109.68 3400.738 L 4109.47 3401.348 L 4109.27 3401.758 L 4108.86 3402.168 L 4108.25 3402.368 L 4106.81 3402.368 M 4111.03 3398.898 L 4111.44 3398.688 L 4112.05 3398.078 L 4112.05 3402.368" fill="none"  stroke-width="0.6" c_note="note_pre" /></g><g c_partid="part_pcbtext" c_etype="" c_origin="4108.5,3512.118" c_rotation="0" c_mirror="0" id="gge474" locked="0" layerid="3" c_shapetype="group" display="none"><path c_fontsize="4.5" c_fontfamily="" c_text="LED-TH-5mm_G" d="M 4108.5 3507.578 L 4108.5 3511.868 M 4108.5 3511.868 L 4110.95 3511.868 M 4112.3 3507.578 L 4112.3 3511.868 M 4112.3 3507.578 L 4114.96 3507.578 M 4112.3 3509.618 L 4113.94 3509.618 M 4112.3 3511.868 L 4114.96 3511.868 M 4116.31 3507.578 L 4116.31 3511.868 M 4116.31 3507.578 L 4117.75 3507.578 L 4118.36 3507.778 L 4118.77 3508.188 L 4118.97 3508.598 L 4119.18 3509.218 L 4119.18 3510.238 L 4118.97 3510.848 L 4118.77 3511.258 L 4118.36 3511.668 L 4117.75 3511.868 L 4116.31 3511.868 M 4120.53 3510.028 L 4124.21 3510.028 M 4126.99 3507.578 L 4126.99 3511.868 M 4125.56 3507.578 L 4128.42 3507.578 M 4129.77 3507.578 L 4129.77 3511.868 M 4132.64 3507.578 L 4132.64 3511.868 M 4129.77 3509.618 L 4132.64 3509.618 M 4133.99 3510.028 L 4137.67 3510.028 M 4141.47 3507.578 L 4139.43 3507.578 L 4139.22 3509.418 L 4139.43 3509.218 L 4140.04 3509.008 L 4140.65 3509.008 L 4141.27 3509.218 L 4141.68 3509.618 L 4141.88 3510.238 L 4141.88 3510.648 L 4141.68 3511.258 L 4141.27 3511.668 L 4140.65 3511.868 L 4140.04 3511.868 L 4139.43 3511.668 L 4139.22 3511.468 L 4139.02 3511.058 M 4143.23 3509.008 L 4143.23 3511.868 M 4143.23 3509.828 L 4143.85 3509.218 L 4144.25 3509.008 L 4144.87 3509.008 L 4145.28 3509.218 L 4145.48 3509.828 L 4145.48 3511.868 M 4145.48 3509.828 L 4146.1 3509.218 L 4146.5 3509.008 L 4147.12 3509.008 L 4147.53 3509.218 L 4147.73 3509.828 L 4147.73 3511.868 M 4149.08 3509.008 L 4149.08 3511.868 M 4149.08 3509.828 L 4149.7 3509.218 L 4150.1 3509.008 L 4150.72 3509.008 L 4151.13 3509.218 L 4151.33 3509.828 L 4151.33 3511.868 M 4151.33 3509.828 L 4151.95 3509.218 L 4152.35 3509.008 L 4152.97 3509.008 L 4153.38 3509.218 L 4153.58 3509.828 L 4153.58 3511.868 M 4154.93 3513.308 L 4158.61 3513.308 M 4163.03 3508.598 L 4162.83 3508.188 L 4162.42 3507.778 L 4162.01 3507.578 L 4161.19 3507.578 L 4160.78 3507.778 L 4160.37 3508.188 L 4160.17 3508.598 L 4159.96 3509.218 L 4159.96 3510.238 L 4160.17 3510.848 L 4160.37 3511.258 L 4160.78 3511.668 L 4161.19 3511.868 L 4162.01 3511.868 L 4162.42 3511.668 L 4162.83 3511.258 L 4163.03 3510.848 L 4163.03 3510.238 M 4162.01 3510.238 L 4163.03 3510.238" fill="none"  stroke-width="0.6" c_note="note_name" /></g><g c_partid="part_pcbtext" c_etype="" c_origin="4108.5,3519.118" c_rotation="0" c_mirror="0" id="gge480" locked="0" layerid="3" c_shapetype="group" ><path c_fontsize="4.5" c_fontfamily="" c_text="LED3" d="M 4108.5 3514.578 L 4108.5 3518.868 M 4108.5 3518.868 L 4110.95 3518.868 M 4112.3 3514.578 L 4112.3 3518.868 M 4112.3 3514.578 L 4114.96 3514.578 M 4112.3 3516.618 L 4113.94 3516.618 M 4112.3 3518.868 L 4114.96 3518.868 M 4116.31 3514.578 L 4116.31 3518.868 M 4116.31 3514.578 L 4117.75 3514.578 L 4118.36 3514.778 L 4118.77 3515.188 L 4118.97 3515.598 L 4119.18 3516.218 L 4119.18 3517.238 L 4118.97 3517.848 L 4118.77 3518.258 L 4118.36 3518.668 L 4117.75 3518.868 L 4116.31 3518.868 M 4120.94 3514.578 L 4123.19 3514.578 L 4121.96 3516.218 L 4122.57 3516.218 L 4122.98 3516.418 L 4123.19 3516.618 L 4123.39 3517.238 L 4123.39 3517.648 L 4123.19 3518.258 L 4122.78 3518.668 L 4122.16 3518.868 L 4121.55 3518.868 L 4120.94 3518.668 L 4120.73 3518.468 L 4120.53 3518.058" fill="none"  stroke-width="0.6" c_note="note_pre" /></g><g c_partid="part_pcbtext" c_etype="" c_origin="4181,3556.618" c_rotation="0" c_mirror="0" id="gge546" locked="0" layerid="3" c_shapetype="group" display="none"><path c_fontsize="4.5" c_fontfamily="" c_text="LED-TH-5mm_R" d="M 4181 3552.078 L 4181 3556.368 M 4181 3556.368 L 4183.45 3556.368 M 4184.8 3552.078 L 4184.8 3556.368 M 4184.8 3552.078 L 4187.46 3552.078 M 4184.8 3554.118 L 4186.44 3554.118 M 4184.8 3556.368 L 4187.46 3556.368 M 4188.81 3552.078 L 4188.81 3556.368 M 4188.81 3552.078 L 4190.25 3552.078 L 4190.86 3552.278 L 4191.27 3552.688 L 4191.47 3553.098 L 4191.68 3553.718 L 4191.68 3554.738 L 4191.47 3555.348 L 4191.27 3555.758 L 4190.86 3556.168 L 4190.25 3556.368 L 4188.81 3556.368 M 4193.03 3554.528 L 4196.71 3554.528 M 4199.49 3552.078 L 4199.49 3556.368 M 4198.06 3552.078 L 4200.92 3552.078 M 4202.27 3552.078 L 4202.27 3556.368 M 4205.14 3552.078 L 4205.14 3556.368 M 4202.27 3554.118 L 4205.14 3554.118 M 4206.49 3554.528 L 4210.17 3554.528 M 4213.97 3552.078 L 4211.93 3552.078 L 4211.72 3553.918 L 4211.93 3553.718 L 4212.54 3553.508 L 4213.15 3553.508 L 4213.77 3553.718 L 4214.18 3554.118 L 4214.38 3554.738 L 4214.38 3555.148 L 4214.18 3555.758 L 4213.77 3556.168 L 4213.15 3556.368 L 4212.54 3556.368 L 4211.93 3556.168 L 4211.72 3555.968 L 4211.52 3555.558 M 4215.73 3553.508 L 4215.73 3556.368 M 4215.73 3554.328 L 4216.35 3553.718 L 4216.75 3553.508 L 4217.37 3553.508 L 4217.78 3553.718 L 4217.98 3554.328 L 4217.98 3556.368 M 4217.98 3554.328 L 4218.6 3553.718 L 4219 3553.508 L 4219.62 3553.508 L 4220.03 3553.718 L 4220.23 3554.328 L 4220.23 3556.368 M 4221.58 3553.508 L 4221.58 3556.368 M 4221.58 3554.328 L 4222.2 3553.718 L 4222.6 3553.508 L 4223.22 3553.508 L 4223.63 3553.718 L 4223.83 3554.328 L 4223.83 3556.368 M 4223.83 3554.328 L 4224.45 3553.718 L 4224.85 3553.508 L 4225.47 3553.508 L 4225.88 3553.718 L 4226.08 3554.328 L 4226.08 3556.368 M 4227.43 3557.808 L 4231.11 3557.808 M 4232.46 3552.078 L 4232.46 3556.368 M 4232.46 3552.078 L 4234.3 3552.078 L 4234.92 3552.278 L 4235.12 3552.488 L 4235.33 3552.898 L 4235.33 3553.308 L 4235.12 3553.718 L 4234.92 3553.918 L 4234.3 3554.118 L 4232.46 3554.118 M 4233.9 3554.118 L 4235.33 3556.368" fill="none"  stroke-width="0.6" c_note="note_name" /></g><g c_partid="part_pcbtext" c_etype="" c_origin="4181,3563.618" c_rotation="0" c_mirror="0" id="gge552" locked="0" layerid="3" c_shapetype="group" ><path c_fontsize="4.5" c_fontfamily="" c_text="LED2" d="M 4181 3559.078 L 4181 3563.368 M 4181 3563.368 L 4183.45 3563.368 M 4184.8 3559.078 L 4184.8 3563.368 M 4184.8 3559.078 L 4187.46 3559.078 M 4184.8 3561.118 L 4186.44 3561.118 M 4184.8 3563.368 L 4187.46 3563.368 M 4188.81 3559.078 L 4188.81 3563.368 M 4188.81 3559.078 L 4190.25 3559.078 L 4190.86 3559.278 L 4191.27 3559.688 L 4191.47 3560.098 L 4191.68 3560.718 L 4191.68 3561.738 L 4191.47 3562.348 L 4191.27 3562.758 L 4190.86 3563.168 L 4190.25 3563.368 L 4188.81 3563.368 M 4193.23 3560.098 L 4193.23 3559.898 L 4193.44 3559.488 L 4193.64 3559.278 L 4194.05 3559.078 L 4194.87 3559.078 L 4195.28 3559.278 L 4195.48 3559.488 L 4195.69 3559.898 L 4195.69 3560.308 L 4195.48 3560.718 L 4195.07 3561.328 L 4193.03 3563.368 L 4195.89 3563.368" fill="none"  stroke-width="0.6" c_note="note_pre" /></g><g c_partid="part_pcbtext" c_etype="" c_origin="4122.732,3618.33" c_rotation="90" c_mirror="0" id="gge618" locked="0" layerid="3" c_shapetype="group" display="none"><path c_fontsize="4.5" c_fontfamily="" c_text="LED-TH-5mm_R" d="M 4118.192 3618.3301 L 4122.482 3618.3301 M 4122.482 3618.3301 L 4122.482 3615.8801 M 4118.192 3614.5301 L 4122.482 3614.5301 M 4118.192 3614.5301 L 4118.192 3611.8701 M 4120.232 3614.5301 L 4120.232 3612.8901 M 4122.482 3614.5301 L 4122.482 3611.8701 M 4118.192 3610.5201 L 4122.482 3610.5201 M 4118.192 3610.5201 L 4118.192 3609.0801 L 4118.392 3608.4701 L 4118.802 3608.0601 L 4119.212 3607.8601 L 4119.832 3607.6501 L 4120.852 3607.6501 L 4121.462 3607.8601 L 4121.872 3608.0601 L 4122.282 3608.4701 L 4122.482 3609.0801 L 4122.482 3610.5201 M 4120.642 3606.3001 L 4120.642 3602.6201 M 4118.192 3599.8401 L 4122.482 3599.8401 M 4118.192 3601.2701 L 4118.192 3598.4101 M 4118.192 3597.0601 L 4122.482 3597.0601 M 4118.192 3594.1901 L 4122.482 3594.1901 M 4120.232 3597.0601 L 4120.232 3594.1901 M 4120.642 3592.8401 L 4120.642 3589.1601 M 4118.192 3585.3601 L 4118.192 3587.4001 L 4120.032 3587.6101 L 4119.832 3587.4001 L 4119.622 3586.7901 L 4119.622 3586.1801 L 4119.832 3585.5601 L 4120.232 3585.1501 L 4120.852 3584.9501 L 4121.262 3584.9501 L 4121.872 3585.1501 L 4122.282 3585.5601 L 4122.482 3586.1801 L 4122.482 3586.7901 L 4122.282 3587.4001 L 4122.082 3587.6101 L 4121.672 3587.8101 M 4119.622 3583.6001 L 4122.482 3583.6001 M 4120.442 3583.6001 L 4119.832 3582.9801 L 4119.622 3582.5801 L 4119.622 3581.9601 L 4119.832 3581.5501 L 4120.442 3581.3501 L 4122.482 3581.3501 M 4120.442 3581.3501 L 4119.832 3580.7301 L 4119.622 3580.3301 L 4119.622 3579.7101 L 4119.832 3579.3001 L 4120.442 3579.1001 L 4122.482 3579.1001 M 4119.622 3577.7501 L 4122.482 3577.7501 M 4120.442 3577.7501 L 4119.832 3577.1301 L 4119.622 3576.7301 L 4119.622 3576.1101 L 4119.832 3575.7001 L 4120.442 3575.5001 L 4122.482 3575.5001 M 4120.442 3575.5001 L 4119.832 3574.8801 L 4119.622 3574.4801 L 4119.622 3573.8601 L 4119.832 3573.4501 L 4120.442 3573.2501 L 4122.482 3573.2501 M 4123.922 3571.9001 L 4123.922 3568.2201 M 4118.192 3566.8701 L 4122.482 3566.8701 M 4118.192 3566.8701 L 4118.192 3565.0301 L 4118.392 3564.4101 L 4118.602 3564.2101 L 4119.012 3564.0001 L 4119.422 3564.0001 L 4119.832 3564.2101 L 4120.032 3564.4101 L 4120.232 3565.0301 L 4120.232 3566.8701 M 4120.232 3565.4301 L 4122.482 3564.0001" fill="none"  stroke-width="0.6" c_note="note_name" /></g><g c_partid="part_pcbtext" c_etype="" c_origin="4112.382,3564" c_rotation="270" c_mirror="0" id="gge624" locked="0" layerid="3" c_shapetype="group" ><path c_fontsize="4.5" c_fontfamily="" c_text="LED4" d="M 4116.922 3564 L 4112.632 3564 M 4112.632 3564 L 4112.632 3566.45 M 4116.922 3567.8 L 4112.632 3567.8 M 4116.922 3567.8 L 4116.922 3570.46 M 4114.882 3567.8 L 4114.882 3569.44 M 4112.632 3567.8 L 4112.632 3570.46 M 4116.922 3571.81 L 4112.632 3571.81 M 4116.922 3571.81 L 4116.922 3573.25 L 4116.722 3573.86 L 4116.312 3574.27 L 4115.902 3574.47 L 4115.282 3574.68 L 4114.262 3574.68 L 4113.652 3574.47 L 4113.242 3574.27 L 4112.832 3573.86 L 4112.632 3573.25 L 4112.632 3571.81 M 4116.922 3578.07 L 4114.062 3576.03 L 4114.062 3579.1 M 4116.922 3578.07 L 4112.632 3578.07" fill="none"  stroke-width="0.6" c_note="note_pre" /></g><g c_partid="part_pcbtext" c_etype="" c_origin="4058,3596.5" c_rotation="90" c_mirror="0" id="gge690" locked="0" layerid="3" c_shapetype="group" display="none"><path c_fontsize="4.5" c_fontfamily="" c_text="2N3904(SOT-23)" d="M 4054.48 3596.3 L 4054.28 3596.3 L 4053.87 3596.09 L 4053.66 3595.89 L 4053.46 3595.48 L 4053.46 3594.66 L 4053.66 3594.25 L 4053.87 3594.05 L 4054.28 3593.84 L 4054.69 3593.84 L 4055.1 3594.05 L 4055.71 3594.45 L 4057.75 3596.5 L 4057.75 3593.64 M 4053.46 3592.29 L 4057.75 3592.29 M 4053.46 3592.29 L 4057.75 3589.42 M 4053.46 3589.42 L 4057.75 3589.42 M 4053.46 3587.66 L 4053.46 3585.41 L 4055.1 3586.64 L 4055.1 3586.03 L 4055.3 3585.62 L 4055.5 3585.41 L 4056.12 3585.21 L 4056.53 3585.21 L 4057.14 3585.41 L 4057.55 3585.82 L 4057.75 3586.44 L 4057.75 3587.05 L 4057.55 3587.66 L 4057.35 3587.87 L 4056.94 3588.07 M 4054.89 3581.2 L 4055.5 3581.4 L 4055.91 3581.81 L 4056.12 3582.43 L 4056.12 3582.63 L 4055.91 3583.25 L 4055.5 3583.65 L 4054.89 3583.86 L 4054.69 3583.86 L 4054.07 3583.65 L 4053.66 3583.25 L 4053.46 3582.63 L 4053.46 3582.43 L 4053.66 3581.81 L 4054.07 3581.4 L 4054.89 3581.2 L 4055.91 3581.2 L 4056.94 3581.4 L 4057.55 3581.81 L 4057.75 3582.43 L 4057.75 3582.84 L 4057.55 3583.45 L 4057.14 3583.65 M 4053.46 3578.62 L 4053.66 3579.24 L 4054.28 3579.65 L 4055.3 3579.85 L 4055.91 3579.85 L 4056.94 3579.65 L 4057.55 3579.24 L 4057.75 3578.62 L 4057.75 3578.21 L 4057.55 3577.6 L 4056.94 3577.19 L 4055.91 3576.99 L 4055.3 3576.99 L 4054.28 3577.19 L 4053.66 3577.6 L 4053.46 3578.21 L 4053.46 3578.62 M 4053.46 3573.59 L 4056.32 3575.64 L 4056.32 3572.57 M 4053.46 3573.59 L 4057.75 3573.59 M 4052.64 3569.79 L 4053.05 3570.2 L 4053.66 3570.6 L 4054.48 3571.01 L 4055.5 3571.22 L 4056.32 3571.22 L 4057.35 3571.01 L 4058.16 3570.6 L 4058.78 3570.2 L 4059.19 3569.79 M 4054.07 3565.57 L 4053.66 3565.98 L 4053.46 3566.6 L 4053.46 3567.41 L 4053.66 3568.03 L 4054.07 3568.44 L 4054.48 3568.44 L 4054.89 3568.23 L 4055.1 3568.03 L 4055.3 3567.62 L 4055.71 3566.39 L 4055.91 3565.98 L 4056.12 3565.78 L 4056.53 3565.57 L 4057.14 3565.57 L 4057.55 3565.98 L 4057.75 3566.6 L 4057.75 3567.41 L 4057.55 3568.03 L 4057.14 3568.44 M 4053.46 3563 L 4053.66 3563.4 L 4054.07 3563.81 L 4054.48 3564.02 L 4055.1 3564.22 L 4056.12 3564.22 L 4056.73 3564.02 L 4057.14 3563.81 L 4057.55 3563.4 L 4057.75 3563 L 4057.75 3562.18 L 4057.55 3561.77 L 4057.14 3561.36 L 4056.73 3561.15 L 4056.12 3560.95 L 4055.1 3560.95 L 4054.48 3561.15 L 4054.07 3561.36 L 4053.66 3561.77 L 4053.46 3562.18 L 4053.46 3563 M 4053.46 3558.17 L 4057.75 3558.17 M 4053.46 3559.6 L 4053.46 3556.74 M 4055.91 3555.39 L 4055.91 3551.7 M 4054.48 3550.15 L 4054.28 3550.15 L 4053.87 3549.95 L 4053.66 3549.74 L 4053.46 3549.33 L 4053.46 3548.51 L 4053.66 3548.1 L 4053.87 3547.9 L 4054.28 3547.7 L 4054.69 3547.7 L 4055.1 3547.9 L 4055.71 3548.31 L 4057.75 3550.35 L 4057.75 3547.49 M 4053.46 3545.73 L 4053.46 3543.48 L 4055.1 3544.71 L 4055.1 3544.1 L 4055.3 3543.69 L 4055.5 3543.48 L 4056.12 3543.28 L 4056.53 3543.28 L 4057.14 3543.48 L 4057.55 3543.89 L 4057.75 3544.5 L 4057.75 3545.12 L 4057.55 3545.73 L 4057.35 3545.94 L 4056.94 3546.14 M 4052.64 3541.93 L 4053.05 3541.52 L 4053.66 3541.11 L 4054.48 3540.7 L 4055.5 3540.5 L 4056.32 3540.5 L 4057.35 3540.7 L 4058.16 3541.11 L 4058.78 3541.52 L 4059.19 3541.93" fill="none"  stroke-width="0.6" c_note="note_name" /></g><g c_partid="part_pcbtext" c_etype="" c_origin="4065,3596.5" c_rotation="90" c_mirror="0" id="gge696" locked="0" layerid="3" c_shapetype="group" ><path c_fontsize="4.5" c_fontfamily="" c_text="Q1" d="M 4060.46 3595.27 L 4060.66 3595.68 L 4061.07 3596.09 L 4061.48 3596.3 L 4062.1 3596.5 L 4063.12 3596.5 L 4063.73 3596.3 L 4064.14 3596.09 L 4064.55 3595.68 L 4064.75 3595.27 L 4064.75 3594.45 L 4064.55 3594.05 L 4064.14 3593.64 L 4063.73 3593.43 L 4063.12 3593.23 L 4062.1 3593.23 L 4061.48 3593.43 L 4061.07 3593.64 L 4060.66 3594.05 L 4060.46 3594.45 L 4060.46 3595.27 M 4063.94 3594.66 L 4065.16 3593.43 M 4061.28 3591.88 L 4061.07 3591.47 L 4060.46 3590.85 L 4064.75 3590.85" fill="none"  stroke-width="0.6" c_note="note_pre" /></g><g c_partid="part_pcbtext" c_etype="" c_origin="4099.5,3598" c_rotation="90" c_mirror="0" id="gge777" locked="0" layerid="3" c_shapetype="group" display="none"><path c_fontsize="4.5" c_fontfamily="" c_text="2N3904(SOT-23)" d="M 4095.98 3597.8 L 4095.78 3597.8 L 4095.37 3597.59 L 4095.16 3597.39 L 4094.96 3596.98 L 4094.96 3596.16 L 4095.16 3595.75 L 4095.37 3595.55 L 4095.78 3595.34 L 4096.19 3595.34 L 4096.6 3595.55 L 4097.21 3595.95 L 4099.25 3598 L 4099.25 3595.14 M 4094.96 3593.79 L 4099.25 3593.79 M 4094.96 3593.79 L 4099.25 3590.92 M 4094.96 3590.92 L 4099.25 3590.92 M 4094.96 3589.16 L 4094.96 3586.91 L 4096.6 3588.14 L 4096.6 3587.53 L 4096.8 3587.12 L 4097 3586.91 L 4097.62 3586.71 L 4098.03 3586.71 L 4098.64 3586.91 L 4099.05 3587.32 L 4099.25 3587.94 L 4099.25 3588.55 L 4099.05 3589.16 L 4098.85 3589.37 L 4098.44 3589.57 M 4096.39 3582.7 L 4097 3582.9 L 4097.41 3583.31 L 4097.62 3583.93 L 4097.62 3584.13 L 4097.41 3584.75 L 4097 3585.15 L 4096.39 3585.36 L 4096.19 3585.36 L 4095.57 3585.15 L 4095.16 3584.75 L 4094.96 3584.13 L 4094.96 3583.93 L 4095.16 3583.31 L 4095.57 3582.9 L 4096.39 3582.7 L 4097.41 3582.7 L 4098.44 3582.9 L 4099.05 3583.31 L 4099.25 3583.93 L 4099.25 3584.34 L 4099.05 3584.95 L 4098.64 3585.15 M 4094.96 3580.12 L 4095.16 3580.74 L 4095.78 3581.15 L 4096.8 3581.35 L 4097.41 3581.35 L 4098.44 3581.15 L 4099.05 3580.74 L 4099.25 3580.12 L 4099.25 3579.71 L 4099.05 3579.1 L 4098.44 3578.69 L 4097.41 3578.49 L 4096.8 3578.49 L 4095.78 3578.69 L 4095.16 3579.1 L 4094.96 3579.71 L 4094.96 3580.12 M 4094.96 3575.09 L 4097.82 3577.14 L 4097.82 3574.07 M 4094.96 3575.09 L 4099.25 3575.09 M 4094.14 3571.29 L 4094.55 3571.7 L 4095.16 3572.1 L 4095.98 3572.51 L 4097 3572.72 L 4097.82 3572.72 L 4098.85 3572.51 L 4099.66 3572.1 L 4100.28 3571.7 L 4100.69 3571.29 M 4095.57 3567.07 L 4095.16 3567.48 L 4094.96 3568.1 L 4094.96 3568.91 L 4095.16 3569.53 L 4095.57 3569.94 L 4095.98 3569.94 L 4096.39 3569.73 L 4096.6 3569.53 L 4096.8 3569.12 L 4097.21 3567.89 L 4097.41 3567.48 L 4097.62 3567.28 L 4098.03 3567.07 L 4098.64 3567.07 L 4099.05 3567.48 L 4099.25 3568.1 L 4099.25 3568.91 L 4099.05 3569.53 L 4098.64 3569.94 M 4094.96 3564.5 L 4095.16 3564.9 L 4095.57 3565.31 L 4095.98 3565.52 L 4096.6 3565.72 L 4097.62 3565.72 L 4098.23 3565.52 L 4098.64 3565.31 L 4099.05 3564.9 L 4099.25 3564.5 L 4099.25 3563.68 L 4099.05 3563.27 L 4098.64 3562.86 L 4098.23 3562.65 L 4097.62 3562.45 L 4096.6 3562.45 L 4095.98 3562.65 L 4095.57 3562.86 L 4095.16 3563.27 L 4094.96 3563.68 L 4094.96 3564.5 M 4094.96 3559.67 L 4099.25 3559.67 M 4094.96 3561.1 L 4094.96 3558.24 M 4097.41 3556.89 L 4097.41 3553.2 M 4095.98 3551.65 L 4095.78 3551.65 L 4095.37 3551.45 L 4095.16 3551.24 L 4094.96 3550.83 L 4094.96 3550.01 L 4095.16 3549.6 L 4095.37 3549.4 L 4095.78 3549.2 L 4096.19 3549.2 L 4096.6 3549.4 L 4097.21 3549.81 L 4099.25 3551.85 L 4099.25 3548.99 M 4094.96 3547.23 L 4094.96 3544.98 L 4096.6 3546.21 L 4096.6 3545.6 L 4096.8 3545.19 L 4097 3544.98 L 4097.62 3544.78 L 4098.03 3544.78 L 4098.64 3544.98 L 4099.05 3545.39 L 4099.25 3546 L 4099.25 3546.62 L 4099.05 3547.23 L 4098.85 3547.44 L 4098.44 3547.64 M 4094.14 3543.43 L 4094.55 3543.02 L 4095.16 3542.61 L 4095.98 3542.2 L 4097 3542 L 4097.82 3542 L 4098.85 3542.2 L 4099.66 3542.61 L 4100.28 3543.02 L 4100.69 3543.43" fill="none"  stroke-width="0.6" c_note="note_name" /></g><g c_partid="part_pcbtext" c_etype="" c_origin="4106.5,3598" c_rotation="90" c_mirror="0" id="gge783" locked="0" layerid="3" c_shapetype="group" ><path c_fontsize="4.5" c_fontfamily="" c_text="Q2" d="M 4101.96 3596.77 L 4102.16 3597.18 L 4102.57 3597.59 L 4102.98 3597.8 L 4103.6 3598 L 4104.62 3598 L 4105.23 3597.8 L 4105.64 3597.59 L 4106.05 3597.18 L 4106.25 3596.77 L 4106.25 3595.95 L 4106.05 3595.55 L 4105.64 3595.14 L 4105.23 3594.93 L 4104.62 3594.73 L 4103.6 3594.73 L 4102.98 3594.93 L 4102.57 3595.14 L 4102.16 3595.55 L 4101.96 3595.95 L 4101.96 3596.77 M 4105.44 3596.16 L 4106.66 3594.93 M 4102.98 3593.17 L 4102.78 3593.17 L 4102.37 3592.97 L 4102.16 3592.76 L 4101.96 3592.35 L 4101.96 3591.54 L 4102.16 3591.13 L 4102.37 3590.92 L 4102.78 3590.72 L 4103.19 3590.72 L 4103.6 3590.92 L 4104.21 3591.33 L 4106.25 3593.38 L 4106.25 3590.51" fill="none"  stroke-width="0.6" c_note="note_pre" /></g><g c_partid="part_pcbtext" c_etype="" c_origin="4176.5,3448.5" c_rotation="90" c_mirror="0" id="gge864" locked="0" layerid="3" c_shapetype="group" display="none"><path c_fontsize="4.5" c_fontfamily="" c_text="1k" d="M 4172.78 3448.5 L 4172.57 3448.09 L 4171.96 3447.48 L 4176.25 3447.48 M 4171.96 3446.13 L 4176.25 3446.13 M 4173.39 3444.08 L 4175.44 3446.13 M 4174.62 3445.31 L 4176.25 3443.88" fill="none"  stroke-width="0.6" c_note="note_name" /></g><g c_partid="part_pcbtext" c_etype="" c_origin="4183.5,3448.5" c_rotation="90" c_mirror="0" id="gge870" locked="0" layerid="3" c_shapetype="group" ><path c_fontsize="4.5" c_fontfamily="" c_text="R1" d="M 4178.96 3448.5 L 4183.25 3448.5 M 4178.96 3448.5 L 4178.96 3446.66 L 4179.16 3446.05 L 4179.37 3445.84 L 4179.78 3445.64 L 4180.19 3445.64 L 4180.6 3445.84 L 4180.8 3446.05 L 4181 3446.66 L 4181 3448.5 M 4181 3447.07 L 4183.25 3445.64 M 4179.78 3444.29 L 4179.57 3443.88 L 4178.96 3443.26 L 4183.25 3443.26" fill="none"  stroke-width="0.6" c_note="note_pre" /></g><g c_partid="part_pcbtext" c_etype="" c_origin="4153,3393.5" c_rotation="0" c_mirror="0" id="gge948" locked="0" layerid="3" c_shapetype="group" display="none"><path c_fontsize="4.5" c_fontfamily="" c_text="10k" d="M 4153 3389.78 L 4153.41 3389.57 L 4154.02 3388.96 L 4154.02 3393.25 M 4156.6 3388.96 L 4155.99 3389.16 L 4155.58 3389.78 L 4155.37 3390.8 L 4155.37 3391.41 L 4155.58 3392.44 L 4155.99 3393.05 L 4156.6 3393.25 L 4157.01 3393.25 L 4157.62 3393.05 L 4158.03 3392.44 L 4158.24 3391.41 L 4158.24 3390.8 L 4158.03 3389.78 L 4157.62 3389.16 L 4157.01 3388.96 L 4156.6 3388.96 M 4159.59 3388.96 L 4159.59 3393.25 M 4161.63 3390.39 L 4159.59 3392.44 M 4160.4 3391.62 L 4161.84 3393.25" fill="none"  stroke-width="0.6" c_note="note_name" /></g><g c_partid="part_pcbtext" c_etype="" c_origin="4153,3400.5" c_rotation="0" c_mirror="0" id="gge954" locked="0" layerid="3" c_shapetype="group" ><path c_fontsize="4.5" c_fontfamily="" c_text="R2" d="M 4153 3395.96 L 4153 3400.25 M 4153 3395.96 L 4154.84 3395.96 L 4155.45 3396.16 L 4155.66 3396.37 L 4155.86 3396.78 L 4155.86 3397.19 L 4155.66 3397.6 L 4155.45 3397.8 L 4154.84 3398 L 4153 3398 M 4154.43 3398 L 4155.86 3400.25 M 4157.42 3396.98 L 4157.42 3396.78 L 4157.62 3396.37 L 4157.83 3396.16 L 4158.24 3395.96 L 4159.05 3395.96 L 4159.46 3396.16 L 4159.67 3396.37 L 4159.87 3396.78 L 4159.87 3397.19 L 4159.67 3397.6 L 4159.26 3398.21 L 4157.21 3400.25 L 4160.08 3400.25" fill="none"  stroke-width="0.6" c_note="note_pre" /></g><g c_partid="part_pcbtext" c_etype="" c_origin="4070,3435.5" c_rotation="0" c_mirror="0" id="gge1032" locked="0" layerid="3" c_shapetype="group" display="none"><path c_fontsize="4.5" c_fontfamily="" c_text="10k" d="M 4070 3431.78 L 4070.41 3431.57 L 4071.02 3430.96 L 4071.02 3435.25 M 4073.6 3430.96 L 4072.99 3431.16 L 4072.58 3431.78 L 4072.37 3432.8 L 4072.37 3433.41 L 4072.58 3434.44 L 4072.99 3435.05 L 4073.6 3435.25 L 4074.01 3435.25 L 4074.62 3435.05 L 4075.03 3434.44 L 4075.24 3433.41 L 4075.24 3432.8 L 4075.03 3431.78 L 4074.62 3431.16 L 4074.01 3430.96 L 4073.6 3430.96 M 4076.59 3430.96 L 4076.59 3435.25 M 4078.63 3432.39 L 4076.59 3434.44 M 4077.4 3433.62 L 4078.84 3435.25" fill="none"  stroke-width="0.6" c_note="note_name" /></g><g c_partid="part_pcbtext" c_etype="" c_origin="4070,3442.5" c_rotation="0" c_mirror="0" id="gge1038" locked="0" layerid="3" c_shapetype="group" ><path c_fontsize="4.5" c_fontfamily="" c_text="R3" d="M 4070 3437.96 L 4070 3442.25 M 4070 3437.96 L 4071.84 3437.96 L 4072.45 3438.16 L 4072.66 3438.37 L 4072.86 3438.78 L 4072.86 3439.19 L 4072.66 3439.6 L 4072.45 3439.8 L 4071.84 3440 L 4070 3440 M 4071.43 3440 L 4072.86 3442.25 M 4074.62 3437.96 L 4076.87 3437.96 L 4075.65 3439.6 L 4076.26 3439.6 L 4076.67 3439.8 L 4076.87 3440 L 4077.08 3440.62 L 4077.08 3441.03 L 4076.87 3441.64 L 4076.46 3442.05 L 4075.85 3442.25 L 4075.24 3442.25 L 4074.62 3442.05 L 4074.42 3441.85 L 4074.21 3441.44" fill="none"  stroke-width="0.6" c_note="note_pre" /></g><g c_partid="part_pcbtext" c_etype="" c_origin="4123.417,3379.004" c_rotation="16" c_mirror="0" id="gge1116" locked="0" layerid="3" c_shapetype="group" display="none"><path c_fontsize="4.5" c_fontfamily="" c_text="1k" d="M 4122.3913 3375.4277 L 4122.7276 3375.1128 L 4123.1458 3374.3583 L 4124.3283 3378.4821 M 4124.4435 3373.9862 L 4125.626 3378.11 M 4126.8083 3374.7958 L 4125.4027 3377.3314 M 4125.9649 3376.3171 L 4127.7888 3377.4898" fill="none"  stroke-width="0.6" c_note="note_name" /></g><g c_partid="part_pcbtext" c_etype="" c_origin="4125.346,3385.732" c_rotation="16" c_mirror="0" id="gge1122" locked="0" layerid="3" c_shapetype="group" ><path c_fontsize="4.5" c_fontfamily="" c_text="R4" d="M 4124.0948 3381.3683 L 4125.2773 3385.4921 M 4124.0948 3381.3683 L 4125.8635 3380.8611 L 4126.505 3380.8852 L 4126.7647 3381.0292 L 4127.07 3381.3682 L 4127.183 3381.7623 L 4127.1038 3382.2116 L 4126.957 3382.4617 L 4126.4258 3382.8221 L 4124.6571 3383.3293 M 4126.0317 3382.9351 L 4128.0265 3384.7038 M 4130.1123 3379.6428 L 4128.93 3382.9571 L 4131.8811 3382.1109 M 4130.1123 3379.6428 L 4131.2948 3383.7666" fill="none"  stroke-width="0.6" c_note="note_pre" /></g><g c_partid="part_pcbtext" c_etype="" c_origin="4066.66,3529.79" c_rotation="0" c_mirror="0" id="gge1200" locked="0" layerid="3" c_shapetype="group" display="none"><path c_fontsize="4.5" c_fontfamily="" c_text="10k" d="M 4066.6599 3526.07 L 4067.0699 3525.86 L 4067.6799 3525.25 L 4067.6799 3529.54 M 4070.2599 3525.25 L 4069.6499 3525.45 L 4069.2399 3526.07 L 4069.0299 3527.09 L 4069.0299 3527.7 L 4069.2399 3528.73 L 4069.6499 3529.34 L 4070.2599 3529.54 L 4070.6699 3529.54 L 4071.2799 3529.34 L 4071.6899 3528.73 L 4071.8999 3527.7 L 4071.8999 3527.09 L 4071.6899 3526.07 L 4071.2799 3525.45 L 4070.6699 3525.25 L 4070.2599 3525.25 M 4073.2499 3525.25 L 4073.2499 3529.54 M 4075.2899 3526.68 L 4073.2499 3528.73 M 4074.0599 3527.91 L 4075.4999 3529.54" fill="none"  stroke-width="0.6" c_note="note_name" /></g><g c_partid="part_pcbtext" c_etype="" c_origin="4075.5,3518" c_rotation="180" c_mirror="0" id="gge1206" locked="0" layerid="3" c_shapetype="group" ><path c_fontsize="4.5" c_fontfamily="" c_text="R5" d="M 4075.5 3522.54 L 4075.5 3518.25 M 4075.5 3522.54 L 4073.66 3522.54 L 4073.05 3522.34 L 4072.84 3522.13 L 4072.64 3521.72 L 4072.64 3521.31 L 4072.84 3520.9 L 4073.05 3520.7 L 4073.66 3520.5 L 4075.5 3520.5 M 4074.07 3520.5 L 4072.64 3518.25 M 4068.83 3522.54 L 4070.88 3522.54 L 4071.08 3520.7 L 4070.88 3520.9 L 4070.26 3521.11 L 4069.65 3521.11 L 4069.04 3520.9 L 4068.63 3520.5 L 4068.42 3519.88 L 4068.42 3519.47 L 4068.63 3518.86 L 4069.04 3518.45 L 4069.65 3518.25 L 4070.26 3518.25 L 4070.88 3518.45 L 4071.08 3518.65 L 4071.29 3519.06" fill="none"  stroke-width="0.6" c_note="note_pre" /></g><g c_partid="part_pcbtext" c_etype="" c_origin="4146.443,3572.15" c_rotation="71" c_mirror="0" id="gge1284" locked="0" layerid="3" c_shapetype="group" display="none"><path c_fontsize="4.5" c_fontfamily="" c_text="10k" d="M 4142.9255 3570.939 L 4142.8604 3570.4829 L 4142.4822 3569.7075 L 4146.5385 3571.1042 M 4143.3222 3567.2682 L 4143.3127 3567.91 L 4143.7654 3568.4995 L 4144.6615 3569.0301 L 4145.2383 3569.2287 L 4146.2806 3569.3656 L 4146.9908 3569.1765 L 4147.3784 3568.6649 L 4147.5119 3568.2772 L 4147.5214 3567.6353 L 4147.0781 3567.049 L 4146.1727 3566.5151 L 4145.596 3566.3165 L 4144.5631 3566.183 L 4143.8433 3566.3689 L 4143.4556 3566.8804 L 4143.3222 3567.2682 M 4144.2957 3564.4409 L 4148.3519 3565.8377 M 4146.3119 3562.9778 L 4147.586 3565.574 M 4147.0744 3564.5411 L 4149.0845 3563.7103" fill="none"  stroke-width="0.6" c_note="note_name" /></g><g c_partid="part_pcbtext" c_etype="" c_origin="4138.173,3559.953" c_rotation="251" c_mirror="0" id="gge1290" locked="0" layerid="3" c_shapetype="group" ><path c_fontsize="4.5" c_fontfamily="" c_text="R6" d="M 4142.4658 3561.4315 L 4138.4096 3560.0349 M 4142.4658 3561.4315 L 4141.8668 3563.1712 L 4141.4791 3563.6829 L 4141.2121 3563.8131 L 4140.7593 3563.8687 L 4140.3716 3563.7352 L 4140.0491 3563.4127 L 4139.9284 3563.149 L 4139.9379 3562.507 L 4140.5369 3560.7674 M 4140.0713 3562.1194 L 4137.4784 3562.7389 M 4139.7174 3567.5395 L 4140.1735 3567.4743 L 4140.5612 3566.9628 L 4140.6946 3566.5751 L 4140.7042 3565.9332 L 4140.2515 3565.3438 L 4139.3554 3564.8131 L 4138.3909 3564.481 L 4137.5472 3564.4126 L 4137.0262 3564.6667 L 4136.6385 3565.1784 L 4136.57 3565.377 L 4136.5605 3566.0188 L 4136.8147 3566.54 L 4137.3264 3566.9276 L 4137.525 3566.9961 L 4138.1667 3567.0055 L 4138.6879 3566.7514 L 4139.0756 3566.2398 L 4139.144 3566.0412 L 4139.1535 3565.3993 L 4138.8994 3564.8782 L 4138.3909 3564.481" fill="none"  stroke-width="0.6" c_note="note_pre" /></g><g c_partid="part_pcbtext" c_etype="" c_origin="4149.739,3559.481" c_rotation="101" c_mirror="0" id="gge1368" locked="0" layerid="3" c_shapetype="group" display="none"><path c_fontsize="4.5" c_fontfamily="" c_text="1k" d="M 4146.0872 3560.1903 L 4145.8028 3559.8279 L 4145.0876 3559.3455 L 4149.2988 3558.527 M 4144.8301 3558.0203 L 4149.0412 3557.2018 M 4145.8426 3555.7351 L 4148.2461 3557.3563 M 4147.2847 3556.7078 L 4148.6119 3554.9931" fill="none"  stroke-width="0.6" c_note="note_name" /></g><g c_partid="part_pcbtext" c_etype="" c_origin="4156.61,3558.145" c_rotation="101" c_mirror="0" id="gge1374" locked="0" layerid="3" c_shapetype="group" ><path c_fontsize="4.5" c_fontfamily="" c_text="R7" d="M 4152.1536 3559.0111 L 4156.3648 3558.1925 M 4152.1536 3559.0111 L 4151.8025 3557.205 L 4151.8825 3556.568 L 4152.0486 3556.3217 L 4152.4129 3556.0472 L 4152.8154 3555.969 L 4153.2559 3556.0871 L 4153.4924 3556.2551 L 4153.8051 3556.8157 L 4154.1562 3558.6218 M 4153.8833 3557.2181 L 4155.8191 3555.3851 M 4150.8027 3552.0611 L 4155.405 3553.255 M 4151.3503 3554.8785 L 4150.8027 3552.0611" fill="none"  stroke-width="0.6" c_note="note_pre" /></g><g c_partid="part_pcbtext" c_etype="" c_origin="4159.483,3542.641" c_rotation="126" c_mirror="0" id="gge1452" locked="0" layerid="3" c_shapetype="group" display="none"><path c_fontsize="4.5" c_fontfamily="" c_text="1k" d="M 4156.4732 3544.8278 L 4156.0624 3544.6195 L 4155.2103 3544.4846 L 4158.681 3541.963 M 4154.4168 3543.3924 L 4157.8875 3540.8708 M 4154.3687 3540.8934 L 4157.2322 3541.3469 M 4156.0868 3541.1655 L 4156.565 3539.0505" fill="none"  stroke-width="0.6" c_note="note_name" /></g><g c_partid="part_pcbtext" c_etype="" c_origin="4165.146,3538.527" c_rotation="126" c_mirror="0" id="gge1458" locked="0" layerid="3" c_shapetype="group" ><path c_fontsize="4.5" c_fontfamily="" c_text="R8" d="M 4161.473 3541.1953 L 4164.9436 3538.6737 M 4161.473 3541.1953 L 4160.3914 3539.7067 L 4160.1947 3539.0956 L 4160.2411 3538.8023 L 4160.4553 3538.3995 L 4160.787 3538.1585 L 4161.2362 3538.0793 L 4161.5215 3538.1316 L 4162.0418 3538.5076 L 4163.1234 3539.9962 M 4162.2828 3538.8393 L 4163.2626 3536.3599 M 4158.393 3536.956 L 4158.9192 3537.34 L 4159.3685 3537.2609 L 4159.7001 3537.0199 L 4159.9143 3536.6171 L 4159.8432 3536.1619 L 4159.523 3535.381 L 4159.3263 3534.7699 L 4159.417 3534.1972 L 4159.6252 3533.7864 L 4160.1268 3533.4219 L 4160.582 3533.3508 L 4160.8613 3533.3951 L 4161.3875 3533.7791 L 4161.8636 3534.4344 L 4162.0663 3535.0536 L 4162.022 3535.3329 L 4161.8138 3535.7438 L 4161.3122 3536.1082 L 4160.857 3536.1793 L 4160.2844 3536.0886 L 4159.764 3535.7127 L 4159.1202 3535.1668 L 4158.7093 3534.9586 L 4158.2601 3535.0378 L 4157.9284 3535.2788 L 4157.7142 3535.6816 L 4157.9169 3536.3007 L 4158.393 3536.956" fill="none"  stroke-width="0.6" c_note="note_pre" /></g><g c_partid="part_pcbtext" c_etype="" c_origin="4126.863,3473.841" c_rotation="69" c_mirror="0" id="gge1536" locked="0" layerid="3" c_shapetype="group" display="none"><path c_fontsize="4.5" c_fontfamily="" c_text="1k" d="M 4123.3905 3472.5081 L 4123.3414 3472.05 L 4122.9905 3471.2619 L 4126.9956 3472.7994 M 4123.4744 3470.0017 L 4127.4794 3471.539 M 4125.544 3468.6003 L 4126.7232 3471.2488 M 4126.2516 3470.1893 L 4128.2857 3469.4384" fill="none"  stroke-width="0.6" c_note="note_name" /></g><g c_partid="part_pcbtext" c_etype="" c_origin="4133.399,3476.35" c_rotation="69" c_mirror="0" id="gge1542" locked="0" layerid="3" c_shapetype="group" ><path c_fontsize="4.5" c_fontfamily="" c_text="R9" d="M 4129.1601 3474.7228 L 4133.1651 3476.2602 M 4129.1601 3474.7228 L 4129.8194 3473.005 L 4130.2248 3472.5072 L 4130.4961 3472.3864 L 4130.9505 3472.3466 L 4131.3333 3472.4936 L 4131.6444 3472.8272 L 4131.7558 3473.0949 L 4131.724 3473.7361 L 4131.0645 3475.4539 M 4131.577 3474.1189 L 4134.1901 3473.5902 M 4132.9571 3468.8216 L 4133.4549 3469.2269 L 4133.6908 3469.7566 L 4133.6682 3470.4014 L 4133.5929 3470.5974 L 4133.1783 3471.0916 L 4132.6485 3471.3275 L 4132.0039 3471.3049 L 4131.8171 3471.2332 L 4131.3135 3470.815 L 4131.0777 3470.2853 L 4131.1096 3469.6441 L 4131.1848 3469.4481 L 4131.5902 3468.9502 L 4132.1199 3468.7144 L 4132.9571 3468.8216 L 4133.9094 3469.1871 L 4134.7992 3469.7429 L 4135.2218 3470.3443 L 4135.1899 3470.9854 L 4135.0429 3471.3682 L 4134.6341 3471.8754 L 4134.1797 3471.9152" fill="none"  stroke-width="0.6" c_note="note_pre" /></g><g c_partid="part_pcbtext" c_etype="" c_origin="4097.988,3411.067" c_rotation="75" c_mirror="0" id="gge1620" locked="0" layerid="3" c_shapetype="group" display="none"><path c_fontsize="4.5" c_fontfamily="" c_text="1k" d="M 4094.3948 3410.1043 L 4094.2981 3409.6539 L 4093.8667 3408.9068 L 4098.0106 3410.0171 M 4094.2162 3407.6028 L 4098.36 3408.7131 M 4096.128 3405.9928 L 4097.5775 3408.5034 M 4096.9978 3407.4992 L 4098.9423 3406.5398" fill="none"  stroke-width="0.6" c_note="note_name" /></g><g c_partid="part_pcbtext" c_etype="" c_origin="4087.796,3403.553" c_rotation="255" c_mirror="0" id="gge1626" locked="0" layerid="3" c_shapetype="group" ><path c_fontsize="4.5" c_fontfamily="" c_text="R10" d="M 4092.1809 3404.7279 L 4088.0371 3403.6176 M 4092.1809 3404.7279 L 4091.7047 3406.5052 L 4091.3535 3407.0427 L 4091.0964 3407.1912 L 4090.6486 3407.2782 L 4090.2525 3407.1722 L 4089.9083 3406.8729 L 4089.7694 3406.6183 L 4089.7341 3405.9773 L 4090.2103 3404.1999 M 4089.8403 3405.5813 L 4087.2968 3406.3801 M 4090.2992 3408.5822 L 4090.3958 3409.0327 L 4090.8246 3409.7894 L 4086.6809 3408.6791 M 4090.1594 3412.2718 L 4090.1242 3411.6309 L 4089.6314 3411.0744 L 4088.6979 3410.6172 L 4088.1088 3410.4593 L 4087.062 3410.3859 L 4086.3668 3410.6241 L 4086.0157 3411.1616 L 4085.9095 3411.5576 L 4085.9422 3412.2082 L 4086.4254 3412.7621 L 4087.3685 3413.2218 L 4087.9577 3413.3797 L 4088.9948 3413.4505 L 4089.6998 3413.215 L 4090.0533 3412.6679 L 4090.1594 3412.2718" fill="none"  stroke-width="0.6" c_note="note_pre" /></g><g c_partid="part_pcbtext" c_etype="" c_origin="4104.5,3344" c_rotation="0" c_mirror="0" id="gge1704" locked="0" layerid="3" c_shapetype="group" display="none"><path c_fontsize="4.5" c_fontfamily="" c_text="240" d="M 4104.7 3340.48 L 4104.7 3340.28 L 4104.91 3339.87 L 4105.11 3339.66 L 4105.52 3339.46 L 4106.34 3339.46 L 4106.75 3339.66 L 4106.95 3339.87 L 4107.16 3340.28 L 4107.16 3340.69 L 4106.95 3341.1 L 4106.55 3341.71 L 4104.5 3343.75 L 4107.36 3343.75 M 4110.76 3339.46 L 4108.71 3342.32 L 4111.78 3342.32 M 4110.76 3339.46 L 4110.76 3343.75 M 4114.36 3339.46 L 4113.75 3339.66 L 4113.34 3340.28 L 4113.13 3341.3 L 4113.13 3341.91 L 4113.34 3342.94 L 4113.75 3343.55 L 4114.36 3343.75 L 4114.77 3343.75 L 4115.38 3343.55 L 4115.79 3342.94 L 4116 3341.91 L 4116 3341.3 L 4115.79 3340.28 L 4115.38 3339.66 L 4114.77 3339.46 L 4114.36 3339.46" fill="none"  stroke-width="0.6" c_note="note_name" /></g><g c_partid="part_pcbtext" c_etype="" c_origin="4104.5,3351" c_rotation="0" c_mirror="0" id="gge1710" locked="0" layerid="3" c_shapetype="group" ><path c_fontsize="4.5" c_fontfamily="" c_text="R11" d="M 4104.5 3346.46 L 4104.5 3350.75 M 4104.5 3346.46 L 4106.34 3346.46 L 4106.95 3346.66 L 4107.16 3346.87 L 4107.36 3347.28 L 4107.36 3347.69 L 4107.16 3348.1 L 4106.95 3348.3 L 4106.34 3348.5 L 4104.5 3348.5 M 4105.93 3348.5 L 4107.36 3350.75 M 4108.71 3347.28 L 4109.12 3347.07 L 4109.74 3346.46 L 4109.74 3350.75 M 4111.09 3347.28 L 4111.5 3347.07 L 4112.11 3346.46 L 4112.11 3350.75" fill="none"  stroke-width="0.6" c_note="note_pre" /></g><g c_partid="part_pcbtext" c_etype="" c_origin="4047,3333" c_rotation="0" c_mirror="0" id="gge1788" locked="0" layerid="3" c_shapetype="group" display="none"><path c_fontsize="4.5" c_fontfamily="" c_text="1k" d="M 4047 3329.28 L 4047.41 3329.07 L 4048.02 3328.46 L 4048.02 3332.75 M 4049.37 3328.46 L 4049.37 3332.75 M 4051.42 3329.89 L 4049.37 3331.94 M 4050.19 3331.12 L 4051.62 3332.75" fill="none"  stroke-width="0.6" c_note="note_name" /></g><g c_partid="part_pcbtext" c_etype="" c_origin="4047,3340" c_rotation="0" c_mirror="0" id="gge1794" locked="0" layerid="3" c_shapetype="group" ><path c_fontsize="4.5" c_fontfamily="" c_text="R12" d="M 4047 3335.46 L 4047 3339.75 M 4047 3335.46 L 4048.84 3335.46 L 4049.45 3335.66 L 4049.66 3335.87 L 4049.86 3336.28 L 4049.86 3336.69 L 4049.66 3337.1 L 4049.45 3337.3 L 4048.84 3337.5 L 4047 3337.5 M 4048.43 3337.5 L 4049.86 3339.75 M 4051.21 3336.28 L 4051.62 3336.07 L 4052.24 3335.46 L 4052.24 3339.75 M 4053.79 3336.48 L 4053.79 3336.28 L 4054 3335.87 L 4054.2 3335.66 L 4054.61 3335.46 L 4055.43 3335.46 L 4055.84 3335.66 L 4056.04 3335.87 L 4056.25 3336.28 L 4056.25 3336.69 L 4056.04 3337.1 L 4055.63 3337.71 L 4053.59 3339.75 L 4056.45 3339.75" fill="none"  stroke-width="0.6" c_note="note_pre" /></g><g c_partid="part_pcbtext" c_etype="" c_origin="4048.5,3463.5" c_rotation="0" c_mirror="0" id="gge1872" locked="0" layerid="3" c_shapetype="group" display="none"><path c_fontsize="4.5" c_fontfamily="" c_text="390" d="M 4048.91 3458.96 L 4051.16 3458.96 L 4049.93 3460.6 L 4050.55 3460.6 L 4050.95 3460.8 L 4051.16 3461 L 4051.36 3461.62 L 4051.36 3462.03 L 4051.16 3462.64 L 4050.75 3463.05 L 4050.14 3463.25 L 4049.52 3463.25 L 4048.91 3463.05 L 4048.7 3462.85 L 4048.5 3462.44 M 4055.37 3460.39 L 4055.17 3461 L 4054.76 3461.41 L 4054.15 3461.62 L 4053.94 3461.62 L 4053.33 3461.41 L 4052.92 3461 L 4052.71 3460.39 L 4052.71 3460.19 L 4052.92 3459.57 L 4053.33 3459.16 L 4053.94 3458.96 L 4054.15 3458.96 L 4054.76 3459.16 L 4055.17 3459.57 L 4055.37 3460.39 L 4055.37 3461.41 L 4055.17 3462.44 L 4054.76 3463.05 L 4054.15 3463.25 L 4053.74 3463.25 L 4053.12 3463.05 L 4052.92 3462.64 M 4057.95 3458.96 L 4057.34 3459.16 L 4056.93 3459.78 L 4056.72 3460.8 L 4056.72 3461.41 L 4056.93 3462.44 L 4057.34 3463.05 L 4057.95 3463.25 L 4058.36 3463.25 L 4058.97 3463.05 L 4059.38 3462.44 L 4059.59 3461.41 L 4059.59 3460.8 L 4059.38 3459.78 L 4058.97 3459.16 L 4058.36 3458.96 L 4057.95 3458.96" fill="none"  stroke-width="0.6" c_note="note_name" /></g><g c_partid="part_pcbtext" c_etype="" c_origin="4048.5,3470.5" c_rotation="0" c_mirror="0" id="gge1878" locked="0" layerid="3" c_shapetype="group" ><path c_fontsize="4.5" c_fontfamily="" c_text="R13" d="M 4048.5 3465.96 L 4048.5 3470.25 M 4048.5 3465.96 L 4050.34 3465.96 L 4050.95 3466.16 L 4051.16 3466.37 L 4051.36 3466.78 L 4051.36 3467.19 L 4051.16 3467.6 L 4050.95 3467.8 L 4050.34 3468 L 4048.5 3468 M 4049.93 3468 L 4051.36 3470.25 M 4052.71 3466.78 L 4053.12 3466.57 L 4053.74 3465.96 L 4053.74 3470.25 M 4055.5 3465.96 L 4057.75 3465.96 L 4056.52 3467.6 L 4057.13 3467.6 L 4057.54 3467.8 L 4057.75 3468 L 4057.95 3468.62 L 4057.95 3469.03 L 4057.75 3469.64 L 4057.34 3470.05 L 4056.72 3470.25 L 4056.11 3470.25 L 4055.5 3470.05 L 4055.29 3469.85 L 4055.09 3469.44" fill="none"  stroke-width="0.6" c_note="note_pre" /></g><path d="M 4026.25 3596.99 A 15.74803 15.74803 0 1 0 4026.25 3596.71" locked="0"  fill="none" stroke-width="1" c_helper_type="arc2" net="" layerid="3" id="gge27" /><path d="M 4040.99 3430.75 A 15.74803 15.74803 0 1 0 4040.71 3430.75" locked="0"  fill="none" stroke-width="1" c_helper_type="arc2" net="" layerid="3" id="gge93" /><path d="M 4048.49 3391.25 A 15.74803 15.74803 0 1 0 4048.21 3391.25" locked="0"  fill="none" stroke-width="1" c_helper_type="arc2" net="" layerid="3" id="gge159" /><path d="M 4105.44 3421.668 A 10.23622 10.23622 0 1 0 4094.56 3421.668" locked="0"  fill="none" stroke-width="1" c_helper_type="arc2" net="" layerid="3" id="gge417" /><path d="M 4114.94 3538.168 A 10.23622 10.23622 0 1 0 4104.06 3538.168" locked="0"  fill="none" stroke-width="1" c_helper_type="arc2" net="" layerid="3" id="gge489" /><path d="M 4187.44 3582.668 A 10.23622 10.23622 0 1 0 4176.56 3582.668" locked="0"  fill="none" stroke-width="1" c_helper_type="arc2" net="" layerid="3" id="gge561" /><path d="M 4093.332 3570.44 A 10.23622 10.23622 0 1 0 4093.332 3559.56" locked="0"  fill="none" stroke-width="1" c_helper_type="arc2" net="" layerid="3" id="gge633" /><path d="M 4095.5 3586 A 11.6619 11.6619 0 1 0 4095.0843 3606.2379" locked="0"  fill="none" stroke-width="1" c_helper_type="arc2" net="" layerid="3" id="gge708" /><path d="M 4137 3587.5 A 11.6619 11.6619 0 1 0 4136.5843 3607.7379" locked="0"  fill="none" stroke-width="1" c_helper_type="arc2" net="" layerid="3" id="gge795" /><path d="M 4053.811 3586.1732 A 17.1259 17.1259 0 0 0 4030.189 3586.1732 Z " stroke-width="0"   net="" type="solid" layerid="3" id="gge30" locked="0" c_teardrop="" c_targetpad="" c_targetwire="" /><path d="M 4030.1732 3403.189 A 17.1259 17.1259 0 0 0 4030.1732 3426.811 Z " stroke-width="0"   net="" type="solid" layerid="3" id="gge96" locked="0" c_teardrop="" c_targetpad="" c_targetwire="" /><path d="M 4037.6732 3363.689 A 17.1259 17.1259 0 0 0 4037.6732 3387.311 Z " stroke-width="0"   net="" type="solid" layerid="3" id="gge162" locked="0" c_teardrop="" c_targetpad="" c_targetwire="" /><polyline points="4020 3320.5 4208.976 3320.5 4208.976 3615.775 4020 3615.775 4020 3320.5" stroke-width="1"  stroke-linecap="round" fill="none" layerid="10" net="" id="gge2196" locked="0" /></svg>